<?xml version="1.0" encoding="UTF-8" standalone="no"?>
<!-- Created with Inkscape (http://www.inkscape.org/) -->

<svg
   width="64"
   height="64"
   viewBox="0 0 16.933333 16.933334"
   version="1.1"
   id="svg5"
   inkscape:version="1.1.2 (b8e25be833, 2022-02-05)"
   sodipodi:docname="reseller.svg"
   xmlns:inkscape="http://www.inkscape.org/namespaces/inkscape"
   xmlns:sodipodi="http://sodipodi.sourceforge.net/DTD/sodipodi-0.dtd"
   xmlns="http://www.w3.org/2000/svg"
   xmlns:svg="http://www.w3.org/2000/svg">
  <sodipodi:namedview
     id="namedview7"
     pagecolor="#ffffff"
     bordercolor="#999999"
     borderopacity="1"
     inkscape:pageshadow="0"
     inkscape:pageopacity="0"
     inkscape:pagecheckerboard="0"
     inkscape:document-units="mm"
     showgrid="false"
     units="px"
     inkscape:zoom="5.6568543"
     inkscape:cx="14.230524"
     inkscape:cy="17.854446"
     inkscape:window-width="1366"
     inkscape:window-height="745"
     inkscape:window-x="1358"
     inkscape:window-y="-8"
     inkscape:window-maximized="1"
     inkscape:current-layer="g1820" />
  <defs
     id="defs2" />
  <g
     inkscape:label="Layer 1"
     inkscape:groupmode="layer"
     id="layer1">
    <g
       id="g2490"
       transform="translate(-0.661458,-0.66140286)"
       style="display:inline">
      <g
         id="Layer_18"
         data-name="Layer 18"
         transform="matrix(0.26458333,0,0,0.26458333,-6e-8,-5.5462024e-5)">
        <path
           d="M 29.73,29.08 H 52 a 1.5,1.5 0 0 0 0,-3 H 29.73 a 1.5,1.5 0 0 0 0,3 z"
           id="path831" />
        <path
           d="m 14.75,31.82 a 4.25,4.25 0 0 0 0,-8.49 4.25,4.25 0 0 0 0,8.49 z m 0,-5.49 a 1.25,1.25 0 0 1 0,2.49 1.25,1.25 0 0 1 0,-2.49 z"
           id="path833" />
        <path
           d="M 61.5,13.79 V 9.93 C 61.5,5.8265243 58.173476,2.5 54.07,2.5 H 9.93 C 5.8265243,2.5 2.5,5.8265243 2.5,9.93 v 3.86 c 0.00943,2.339029 1.121224,4.536678 3,5.93 -1.8800182,1.392275 -2.9921511,3.590591 -3,5.93 v 3.86 c 0.00551,4.101192 3.3288082,7.424491 7.43,7.43 H 21 h 2.99 6.51 3 6.5 3 11.07 c 4.101192,-0.0055 7.424491,-3.328808 7.43,-7.43 v -3.86 c -0.0078,-2.339409 -1.119982,-4.537725 -3,-5.93 1.878776,-1.393322 2.990571,-3.590971 3,-5.93 z m -3,11.86 v 3.86 c -0.0055,2.44434 -1.98566,4.424501 -4.43,4.43 H 9.93 C 7.48566,33.934501 5.5054991,31.95434 5.5,29.51 v -3.86 c 0.0055,-2.44434 1.98566,-4.424501 4.43,-4.43 h 44.14 c 2.44434,0.0055 4.424501,1.98566 4.43,4.43 z M 9.93,18.22 C 7.48566,18.214501 5.5054991,16.23434 5.5,13.79 V 9.93 C 5.5054991,7.48566 7.48566,5.5054991 9.93,5.5 h 44.14 c 2.44434,0.0055 4.424501,1.98566 4.43,4.43 v 3.86 c -0.0055,2.44434 -1.98566,4.424501 -4.43,4.43 z"
           id="path835"
           sodipodi:nodetypes="csssscccccccccccccccccccccccccccccccccc" />
        <path
           d="M 52,10.36 H 29.73 a 1.5,1.5 0 0 0 0,3 H 52 a 1.5,1.5 0 0 0 0,-3 z"
           id="path837" />
        <path
           d="m 14.75,7.61 a 4.25,4.25 0 0 0 0,8.5 4.25,4.25 0 0 0 0,-8.5 z m 0,5.5 a 1.25,1.25 0 0 1 0,-2.5 1.25,1.25 0 0 1 0,2.5 z"
           id="path839" />
      </g>
      <g
         id="g2476"
         transform="translate(-21.43125,2.0319444)">
        <path
           d="m 29.297312,9.8186874 h 5.892271 a 0.396875,0.396875 0 0 0 0,-0.79375 h -5.892271 a 0.396875,0.396875 0 0 0 0,0.79375 z"
           id="path831-3"
           style="stroke-width:0.264583" />
        <path
           d="m 25.333854,10.543646 a 1.1244792,1.1244792 0 0 0 0,-2.2463127 1.1244792,1.1244792 0 0 0 0,2.2463127 z m 0,-1.4525627 a 0.33072916,0.33072916 0 0 1 0,0.6588125 0.33072916,0.33072916 0 0 1 0,-0.6588125 z"
           id="path833-2"
           style="stroke-width:0.264583" />
        <path
           d="M 37.703125,5.7732083 V 4.7519167 c 0,-1.0857113 -0.880143,-1.9658542 -1.965854,-1.9658542 H 24.058562 c -1.085711,0 -1.965854,0.8801429 -1.965854,1.9658542 v 1.0212916 c 0.0025,0.6188681 0.296658,1.2003294 0.79375,1.5689792 -0.497421,0.3683727 -0.791673,0.9500105 -0.79375,1.5689791 v 1.0212917 c 0.0015,1.0851067 0.880747,1.9643967 1.965854,1.9658537 h 2.928938 0.791104 1.722438 0.79375 1.719791 0.79375 2.928938 c 1.085107,-0.0015 1.964396,-0.880747 1.965854,-1.9658537 V 8.9111666 C 37.701061,8.292198 37.406796,7.7105602 36.909375,7.3421875 37.406468,6.9735377 37.70063,6.3920764 37.703125,5.7732083 Z m -0.79375,3.1379583 V 9.9324583 C 36.90792,10.57919 36.384002,11.103107 35.737271,11.104562 H 24.058562 C 23.411831,11.103107 22.887913,10.57919 22.886458,9.9324583 V 8.9111666 c 0.0015,-0.6467316 0.525373,-1.1706492 1.172104,-1.1721041 h 11.678709 c 0.646731,0.00146 1.170649,0.5253725 1.172104,1.1721041 z M 24.058562,6.9453125 C 23.411831,6.9438575 22.887913,6.4199399 22.886458,5.7732083 V 4.7519167 c 0.0015,-0.6467316 0.525373,-1.1706492 1.172104,-1.1721042 h 11.678709 c 0.646731,0.00146 1.170649,0.5253726 1.172104,1.1721042 v 1.0212916 c -0.0015,0.6467316 -0.525373,1.1706492 -1.172104,1.1721042 z"
           id="path835-0"
           sodipodi:nodetypes="csssscccccccccccccccccccccccccccccccccc"
           style="stroke-width:0.264583" />
        <path
           d="m 35.189583,4.8656875 h -5.892271 a 0.396875,0.396875 0 0 0 0,0.79375 h 5.892271 a 0.396875,0.396875 0 0 0 0,-0.79375 z"
           id="path837-6"
           style="stroke-width:0.264583" />
        <path
           d="m 25.333854,4.1380833 a 1.1244792,1.1244792 0 0 0 0,2.2489583 1.1244792,1.1244792 0 0 0 0,-2.2489583 z m 0,1.4552084 a 0.3307292,0.3307292 0 0 1 0,-0.6614584 0.3307292,0.3307292 0 0 1 0,0.6614584 z"
           id="path839-2"
           style="stroke-width:0.264583" />
      </g>
    </g>
    <g
       id="g2671"
       transform="translate(0.34685793,0.19472523)">
      <g
         id="g5928"
         transform="translate(28.001855,10.400201)">
        <g
           id="g1820"
           transform="translate(0,-0.52916663)">
          <rect
             style="opacity:1;fill:#ffffff;fill-rule:evenodd;stroke-width:0.305049;stroke-dasharray:1.83029"
             id="rect1735"
             width="9.1673441"
             height="9.1673441"
             x="-20.755445"
             y="-2.1834519"
             ry="1.1863623" />
          <g
             aria-label=" ₹"
             id="text2913"
             style="font-size:10.5833px;line-height:1.25;font-family:'Space Grotesk';-inkscape-font-specification:'Space Grotesk';letter-spacing:0px;stroke-width:0.264583;fill:#000000"
             transform="translate(0.1092594,1.1506752)">
            <path
               d="m -13.653709,-2.2287021 -0.516763,0.7648088 h -1.074867 q 0.165365,0.1860345 0.273885,0.4237454 0.10852,0.23771078 0.155028,0.54776839 h 1.162717 l -0.516763,0.76480876 h -0.645954 q -0.06201,0.37723676 -0.248046,0.69762962 -0.180867,0.31522523 -0.480589,0.54776843 -0.299722,0.2273756 -0.713132,0.3565663 -0.408243,0.1291906 -0.919838,0.1291906 l 3.141917,3.3434545 h -1.374589 L -18.444099,2.0862663 V 1.3214575 h 0.759641 q 0.356566,0 0.661456,-0.067179 0.30489,-0.067179 0.542601,-0.2015374 0.237711,-0.1343583 0.392739,-0.32556049 0.160197,-0.19636982 0.222208,-0.45475116 h -2.837027 l 0.516763,-0.76480876 h 2.315097 q -0.118856,-0.4444159 -0.511595,-0.70796489 -0.387572,-0.2635489 -1.059364,-0.2635489 h -1.260901 l 0.516763,-0.7648088 z"
               style="font-family:Arial;-inkscape-font-specification:Arial;fill:#000000"
               id="path841" />
          </g>
        </g>
      </g>
    </g>
  </g>
</svg>
