<?xml version="1.0" encoding="UTF-8" standalone="no"?>
<!-- Created with Inkscape (http://www.inkscape.org/) -->

<svg
   width="64"
   height="64"
   viewBox="0 0 16.933333 16.933334"
   version="1.1"
   id="svg5"
   inkscape:version="1.1.2 (b8e25be833, 2022-02-05)"
   sodipodi:docname="cloud.svg"
   xmlns:inkscape="http://www.inkscape.org/namespaces/inkscape"
   xmlns:sodipodi="http://sodipodi.sourceforge.net/DTD/sodipodi-0.dtd"
   xmlns="http://www.w3.org/2000/svg"
   xmlns:svg="http://www.w3.org/2000/svg"
   xmlns:sketch="http://www.bohemiancoding.com/sketch/ns">
  <sodipodi:namedview
     id="namedview7"
     pagecolor="#ffffff"
     bordercolor="#999999"
     borderopacity="1"
     inkscape:pageshadow="0"
     inkscape:pageopacity="0"
     inkscape:pagecheckerboard="0"
     inkscape:document-units="mm"
     showgrid="false"
     units="px"
     inkscape:zoom="8.0000001"
     inkscape:cx="-4.0625"
     inkscape:cy="25.375"
     inkscape:window-width="1366"
     inkscape:window-height="745"
     inkscape:window-x="1358"
     inkscape:window-y="-8"
     inkscape:window-maximized="1"
     inkscape:current-layer="layer1" />
  <defs
     id="defs2" />
  <g
     inkscape:label="Layer 1"
     inkscape:groupmode="layer"
     id="layer1">
    <g
       id="g2490"
       transform="translate(1.6666666e-7,-0.66140286)"
       style="display:inline">
      <g
         id="Layer_18"
         data-name="Layer 18"
         transform="matrix(0.26458333,0,0,0.26458333,-6e-8,-5.5462024e-5)">
        <path
           d="M 29.73,29.08 H 52 a 1.5,1.5 0 0 0 0,-3 H 29.73 a 1.5,1.5 0 0 0 0,3 z"
           id="path831" />
        <path
           d="m 14.75,31.82 a 4.25,4.25 0 0 0 0,-8.49 4.25,4.25 0 0 0 0,8.49 z m 0,-5.49 a 1.25,1.25 0 0 1 0,2.49 1.25,1.25 0 0 1 0,-2.49 z"
           id="path833" />
        <path
           d="M 61.5,13.79 V 9.93 C 61.5,5.8265243 58.173476,2.5 54.07,2.5 H 9.93 C 5.8265243,2.5 2.5,5.8265243 2.5,9.93 v 3.86 c 0.00943,2.339029 1.121224,4.536678 3,5.93 -1.8800182,1.392275 -2.9921511,3.590591 -3,5.93 v 3.86 c 0.00551,4.101192 3.3288082,7.424491 7.43,7.43 H 21 h 2.99 6.51 3 6.5 3 11.07 c 4.101192,-0.0055 7.424491,-3.328808 7.43,-7.43 v -3.86 c -0.0078,-2.339409 -1.119982,-4.537725 -3,-5.93 1.878776,-1.393322 2.990571,-3.590971 3,-5.93 z m -3,11.86 v 3.86 c -0.0055,2.44434 -1.98566,4.424501 -4.43,4.43 H 9.93 C 7.48566,33.934501 5.5054991,31.95434 5.5,29.51 v -3.86 c 0.0055,-2.44434 1.98566,-4.424501 4.43,-4.43 h 44.14 c 2.44434,0.0055 4.424501,1.98566 4.43,4.43 z M 9.93,18.22 C 7.48566,18.214501 5.5054991,16.23434 5.5,13.79 V 9.93 C 5.5054991,7.48566 7.48566,5.5054991 9.93,5.5 h 44.14 c 2.44434,0.0055 4.424501,1.98566 4.43,4.43 v 3.86 c -0.0055,2.44434 -1.98566,4.424501 -4.43,4.43 z"
           id="path835"
           sodipodi:nodetypes="csssscccccccccccccccccccccccccccccccccc" />
        <path
           d="M 52,10.36 H 29.73 a 1.5,1.5 0 0 0 0,3 H 52 a 1.5,1.5 0 0 0 0,-3 z"
           id="path837" />
        <path
           d="m 14.75,7.61 a 4.25,4.25 0 0 0 0,8.5 4.25,4.25 0 0 0 0,-8.5 z m 0,5.5 a 1.25,1.25 0 0 1 0,-2.5 1.25,1.25 0 0 1 0,2.5 z"
           id="path839" />
      </g>
      <g
         id="g2476"
         transform="translate(-21.43125,2.0319444)">
        <path
           d="m 29.297312,9.8186874 h 5.892271 a 0.396875,0.396875 0 0 0 0,-0.79375 h -5.892271 a 0.396875,0.396875 0 0 0 0,0.79375 z"
           id="path831-3"
           style="stroke-width:0.264583" />
        <path
           d="m 25.333854,10.543646 a 1.1244792,1.1244792 0 0 0 0,-2.2463127 1.1244792,1.1244792 0 0 0 0,2.2463127 z m 0,-1.4525627 a 0.33072916,0.33072916 0 0 1 0,0.6588125 0.33072916,0.33072916 0 0 1 0,-0.6588125 z"
           id="path833-2"
           style="stroke-width:0.264583" />
        <path
           d="M 37.703125,5.7732083 V 4.7519167 c 0,-1.0857113 -0.880143,-1.9658542 -1.965854,-1.9658542 H 24.058562 c -1.085711,0 -1.965854,0.8801429 -1.965854,1.9658542 v 1.0212916 c 0.0025,0.6188681 0.296658,1.2003294 0.79375,1.5689792 -0.497421,0.3683727 -0.791673,0.9500105 -0.79375,1.5689791 v 1.0212917 c 0.0015,1.0851067 0.880747,1.9643967 1.965854,1.9658537 h 2.928938 0.791104 1.722438 0.79375 1.719791 0.79375 2.928938 c 1.085107,-0.0015 1.964396,-0.880747 1.965854,-1.9658537 V 8.9111666 C 37.701061,8.292198 37.406796,7.7105602 36.909375,7.3421875 37.406468,6.9735377 37.70063,6.3920764 37.703125,5.7732083 Z m -0.79375,3.1379583 V 9.9324583 C 36.90792,10.57919 36.384002,11.103107 35.737271,11.104562 H 24.058562 C 23.411831,11.103107 22.887913,10.57919 22.886458,9.9324583 V 8.9111666 c 0.0015,-0.6467316 0.525373,-1.1706492 1.172104,-1.1721041 h 11.678709 c 0.646731,0.00146 1.170649,0.5253725 1.172104,1.1721041 z M 24.058562,6.9453125 C 23.411831,6.9438575 22.887913,6.4199399 22.886458,5.7732083 V 4.7519167 c 0.0015,-0.6467316 0.525373,-1.1706492 1.172104,-1.1721042 h 11.678709 c 0.646731,0.00146 1.170649,0.5253726 1.172104,1.1721042 v 1.0212916 c -0.0015,0.6467316 -0.525373,1.1706492 -1.172104,1.1721042 z"
           id="path835-0"
           sodipodi:nodetypes="csssscccccccccccccccccccccccccccccccccc"
           style="stroke-width:0.264583" />
        <path
           d="m 35.189583,4.8656875 h -5.892271 a 0.396875,0.396875 0 0 0 0,0.79375 h 5.892271 a 0.396875,0.396875 0 0 0 0,-0.79375 z"
           id="path837-6"
           style="stroke-width:0.264583" />
        <path
           d="m 25.333854,4.1380833 a 1.1244792,1.1244792 0 0 0 0,2.2489583 1.1244792,1.1244792 0 0 0 0,-2.2489583 z m 0,1.4552084 a 0.3307292,0.3307292 0 0 1 0,-0.6614584 0.3307292,0.3307292 0 0 1 0,0.6614584 z"
           id="path839-2"
           style="stroke-width:0.264583" />
      </g>
    </g>
    <g
       id="g2671"
       transform="translate(-5.813248,0.19472523)">
      <g
         id="g5928"
         transform="translate(28.001855,10.400201)">
        <g
           id="g1820"
           transform="translate(0,-0.52916663)">
          <rect
             style="opacity:1;fill:#ffffff;fill-rule:evenodd;stroke-width:0.413062;stroke-dasharray:2.47837"
             id="rect1735"
             width="16.808727"
             height="9.1673441"
             x="-22.126305"
             y="-2.1834519"
             ry="1.1863623" />
          <path
             d="m -18.286171,2.1813425 c -0.819793,0.1890174 -1.431089,0.9241145 -1.431089,1.7988207 0,1.0194971 0.829733,1.8459634 1.847265,1.8459634 h 7.842746 c 1.0202163,0 1.8472652,-0.8285401 1.8472652,-1.8459634 0,-0.8664228 -0.5992749,-1.5934286 -1.4037987,-1.7922119 v 0 c 0.012733,-0.093018 0.019328,-0.1879865 0.019328,-0.2844977 0,-1.14693485 -0.9297745,-2.07670939 -2.0767095,-2.07670939 -0.565577,0 -1.078347,0.22609076 -1.452861,0.59282131 -0.457311,-0.8995263 -1.391593,-1.51580382 -2.469814,-1.51580382 -1.529246,0 -2.768946,1.23969935 -2.768946,2.7689459 0,0.1737415 0.01605,0.3437575 0.04662,0.5086349 z m 9.1829046,-0.3173326 c 0.8160533,0.3557002 1.3847731,1.1693308 1.3847731,2.1161533 0,1.271779 -1.032966,2.3074556 -2.3071967,2.3074556 h -7.845863 c -1.276922,0 -2.307197,-1.0330829 -2.307197,-2.3074556 0,-0.946458 0.57209,-1.7621538 1.389963,-2.117533 v 0 c -0.0037,-0.062844 -0.0054,-0.1261592 -0.0054,-0.1899226 0,-1.78412039 1.446316,-3.2304363 3.230437,-3.2304363 1.060482,0 2.001614,0.511 2.590598,1.30020276 0.387206,-0.23918981 0.843521,-0.37722026 1.332077,-0.37722026 1.388638,0 2.5168207,1.11513432 2.5378995,2.4987561 z"
             id="cloud"
             sketch:type="MSShapeGroup"
             style="fill:#00000f;fill-opacity:1;fill-rule:evenodd;stroke:#000000;stroke-width:0.5;stroke-miterlimit:4;stroke-dasharray:none;stroke-opacity:1" />
        </g>
      </g>
    </g>
  </g>
</svg>
