<?xml version="1.0" encoding="UTF-8" standalone="no"?> <svg xmlns="http://www.w3.org/2000/svg" viewBox="0 0 64 64"><g id="Layer_18" data-name="Layer 18"><path d="M29.73,29.08H52a1.5,1.5,0,0,0,0-3H29.73A1.5,1.5,0,0,0,29.73,29.08Z"/><path d="M14.75,31.82a4.25,4.25,0,0,0,0-8.49A4.25,4.25,0,0,0,14.75,31.82Zm0-5.49a1.25,1.25,0,0,1,0,2.49A1.25,1.25,0,0,1,14.75,26.33Z"/><path d="M61.5,13.79V9.93A7.43,7.43,0,0,0,54.07,2.5H9.93A7.43,7.43,0,0,0,2.5,9.93v3.86a7.42,7.42,0,0,0,3,5.93,7.41,7.41,0,0,0-3,5.93v3.86a7.44,7.44,0,0,0,7.43,7.43H21v9.74H17.88c-1.75-5.79-10.31-4.6-10.38,1.5s8.63,7.29,10.38,1.5h4.61a1.5,1.5,0,0,0,1.5-1.5V36.94H30.5V51.12C24.71,52.87,25.9,61.43,32,61.5s7.29-8.63,1.5-10.38V36.94H40V48.18a1.5,1.5,0,0,0,1.5,1.5h4.61c1.75,5.8,10.31,4.61,10.38-1.5s-8.63-7.29-10.38-1.5H43V36.94H54.07a7.44,7.44,0,0,0,7.43-7.43V25.65a7.41,7.41,0,0,0-3-5.93A7.42,7.42,0,0,0,61.5,13.79ZM12.81,50.49a2.31,2.31,0,0,1,0-4.62A2.31,2.31,0,0,1,12.81,50.49Zm21.5,5.7a2.31,2.31,0,0,1-4.62,0A2.31,2.31,0,0,1,34.31,56.19ZM51.19,45.87a2.31,2.31,0,0,1,0,4.62A2.31,2.31,0,0,1,51.19,45.87ZM58.5,25.65v3.86a4.44,4.44,0,0,1-4.43,4.43H9.93A4.44,4.44,0,0,1,5.5,29.51V25.65a4.44,4.44,0,0,1,4.43-4.43H54.07A4.44,4.44,0,0,1,58.5,25.65ZM9.93,18.22A4.44,4.44,0,0,1,5.5,13.79V9.93A4.44,4.44,0,0,1,9.93,5.5H54.07A4.44,4.44,0,0,1,58.5,9.93v3.86a4.44,4.44,0,0,1-4.43,4.43Z"/><path d="M52,10.36H29.73a1.5,1.5,0,0,0,0,3H52A1.5,1.5,0,0,0,52,10.36Z"/><path d="M14.75,7.61a4.25,4.25,0,0,0,0,8.5A4.25,4.25,0,0,0,14.75,7.61Zm0,5.5a1.25,1.25,0,0,1,0-2.5A1.25,1.25,0,0,1,14.75,13.11Z"/></g></svg>