<?xml version="1.0" encoding="UTF-8" standalone="no"?>
<!-- Created with Inkscape (http://www.inkscape.org/) -->

<svg
   width="64"
   height="64"
   viewBox="0 0 16.933333 16.933334"
   version="1.1"
   id="svg5"
   inkscape:version="1.1.2 (b8e25be833, 2022-02-05)"
   sodipodi:docname="world.svg"
   xmlns:inkscape="http://www.inkscape.org/namespaces/inkscape"
   xmlns:sodipodi="http://sodipodi.sourceforge.net/DTD/sodipodi-0.dtd"
   xmlns="http://www.w3.org/2000/svg"
   xmlns:svg="http://www.w3.org/2000/svg">
  <sodipodi:namedview
     id="namedview7"
     pagecolor="#ffffff"
     bordercolor="#999999"
     borderopacity="1"
     inkscape:pageshadow="0"
     inkscape:pageopacity="0"
     inkscape:pagecheckerboard="0"
     inkscape:document-units="mm"
     showgrid="false"
     units="px"
     inkscape:zoom="4.0000001"
     inkscape:cx="86.374999"
     inkscape:cy="32"
     inkscape:window-width="1350"
     inkscape:window-height="699"
     inkscape:window-x="1366"
     inkscape:window-y="0"
     inkscape:window-maximized="1"
     inkscape:current-layer="g6219" />
  <defs
     id="defs2">
    <style
       id="style919">.cls-1{fill:#2d3e50;}</style>
  </defs>
  <g
     inkscape:label="Layer 1"
     inkscape:groupmode="layer"
     id="layer1">
    <g
       style="fill:none"
       id="g6243"
       transform="matrix(0.32170927,0,0,0.32170927,-0.64341818,-0.64341854)">
      <path
         d="M 24,2 C 19.6488,2 15.3953,3.29028 11.7775,5.70767 8.15958,8.12506 5.33979,11.561 3.67466,15.581 c -1.66513,4.0199 -2.1008,8.4434 -1.25193,12.711 0.84888,4.2676 2.94418,8.1876 6.02093,11.2644 3.07674,3.0767 6.99674,5.172 11.26434,6.0209 4.2676,0.8488 8.6911,0.4132 12.711,-1.252 4.02,-1.6651 7.456,-4.4849 9.8733,-8.1028 C 44.7097,32.6047 46,28.3512 46,24 45.9934,18.1673 43.6734,12.5753 39.5491,8.45096 35.4247,4.32659 29.8327,2.00662 24,2 Z m 15.075,8.9 -3.133,1.957 c -0.2059,0.1298 -0.4352,0.2181 -0.675,0.26 l -2.049,0.339 c -0.2734,0.045 -0.5533,0.03 -0.8203,-0.0441 -0.267,-0.0742 -0.5146,-0.2055 -0.7257,-0.385 C 31.4609,12.8474 31.2915,12.6241 31.1754,12.3725 31.0594,12.1209 30.9995,11.8471 31,11.57 v -0.82 c 0.0012,-0.3242 0.0855,-0.6427 0.245,-0.925 l 1.972,-3.556 c 2.2246,1.16447 4.2115,2.7352 5.858,4.631 z M 15.424,5.959 18.043,7.836 c 0.2261,0.16037 0.3939,0.3899 0.4781,0.65397 C 18.6054,8.75404 18.6015,9.03834 18.51,9.3 l -0.288,0.876 c -0.0642,0.1877 -0.1698,0.3586 -0.309,0.5 l -1.95,1.95 c -0.3061,0.3045 -0.5488,0.6667 -0.7141,1.0656 C 15.0836,14.0905 14.999,14.5182 15,14.95 v 1.1 c 8e-4,0.1694 -0.0322,0.3373 -0.0969,0.4939 -0.0647,0.1565 -0.1599,0.2987 -0.2801,0.4181 -0.5387,0.5403 -0.8736,1.2505 -0.9476,2.0099 -0.074,0.7594 0.1174,1.521 0.5416,2.1551 l 0.1,0.141 c 0.3598,0.5477 0.8754,0.975 1.4804,1.2269 0.6049,0.2519 1.2715,0.3167 1.9136,0.1861 l 2.5,-0.5 c 0.1761,-0.0338 0.3572,-0.0308 0.5321,0.0088 0.1748,0.0396 0.3396,0.1149 0.4839,0.2212 l 2.751,2.07 c 0.156,0.1207 0.2842,0.2735 0.376,0.448 l 1.019,2.041 c 0.1234,0.2435 0.1665,0.5199 0.123,0.7894 -0.0434,0.2695 -0.1712,0.5183 -0.365,0.7106 l -2.16,2.16 c -0.307,0.3034 -0.5509,0.6647 -0.7176,1.0629 C 22.0867,32.0911 22.0006,32.5183 22,32.95 v 3.82 c 0.0017,0.2126 -0.0495,0.4222 -0.149,0.6101 -0.0995,0.1878 -0.2442,0.3479 -0.421,0.4659 l -0.72,0.475 c -0.2111,0.143 -0.4604,0.219 -0.7154,0.2179 -0.255,-0.0011 -0.5037,-0.0791 -0.7136,-0.2239 l -0.713,-0.47 C 18.3917,37.7269 18.2475,37.5668 18.1483,37.3792 18.0492,37.1915 17.9982,36.9822 18,36.77 v -2.54 c 0.0026,-0.543 -0.1301,-1.0781 -0.386,-1.557 -0.2559,-0.4788 -0.6271,-0.8864 -1.08,-1.186 L 15.568,30.845 C 15.3917,30.7269 15.2475,30.5668 15.1483,30.3792 15.0492,30.1915 14.9982,29.9822 15,29.77 v -3.82 c 0.0014,-0.4323 -0.083,-0.8606 -0.2483,-1.26 -0.1653,-0.3994 -0.4082,-0.7621 -0.7147,-1.067 l -1.95,-1.95 C 11.7277,21.3143 11.2903,21.0436 10.809,20.882 L 9.40901,20.411 C 9.21799,20.3479 9.04446,20.2408 8.90238,20.0984 8.76031,19.956 8.65365,19.7822 8.59101,19.591 l -0.338,-1 C 8.1163,18.1814 7.90021,17.8028 7.61709,17.4768 7.33398,17.1508 6.98938,16.8838 6.60301,16.691 l -1.006,-0.506 C 7.5219,11.6959 11.015,8.06093 15.424,5.959 Z M 24,44 C 20.8661,43.9999 17.776,43.2633 14.979,41.8496 12.182,40.4359 9.75634,38.3847 7.89768,35.8614 6.03901,33.3381 4.79935,30.4134 4.27865,27.323 3.75795,24.2326 3.97079,21.063 4.90001,18.07 l 0.805,0.405 c 0.15256,0.0741 0.28865,0.1782 0.40014,0.306 0.1115,0.1278 0.19614,0.2768 0.24886,0.438 l 0.339,1.008 c 0.15959,0.4855 0.43094,0.9267 0.79222,1.2882 0.36127,0.3614 0.80237,0.633 1.28778,0.7928 l 1.39999,0.471 c 0.1878,0.0635 0.3588,0.1688 0.5,0.308 l 1.95,1.95 c 0.1201,0.1197 0.2153,0.262 0.28,0.4187 0.0647,0.1568 0.0977,0.3247 0.097,0.4943 v 3.82 c -0.0026,0.543 0.1301,1.0781 0.386,1.557 0.256,0.4788 0.6271,0.8864 1.08,1.186 l 0.966,0.642 c 0.1763,0.1181 0.3205,0.2782 0.4197,0.4658 0.0991,0.1877 0.1501,0.397 0.1483,0.6092 v 2.54 c -0.0025,0.5436 0.1305,1.0792 0.387,1.5585 0.2565,0.4792 0.6283,0.887 1.082,1.1865 l 0.7,0.464 c 0.5406,0.366 1.1782,0.5621 1.831,0.563 0.6479,10e-5 1.2809,-0.1942 1.817,-0.558 l 0.709,-0.468 c 0.4547,-0.299 0.8276,-0.7068 1.085,-1.1862 C 23.8683,37.8503 24.0021,37.3142 24,36.77 v -3.82 c -6e-4,-0.1696 0.0323,-0.3375 0.097,-0.4943 0.0648,-0.1567 0.1599,-0.299 0.28,-0.4187 l 2.16,-2.16 c 0.489,-0.4883 0.8118,-1.1182 0.9226,-1.8003 0.1107,-0.6821 0.0038,-1.3818 -0.3056,-1.9997 l -1.025,-2.052 c -0.2301,-0.4465 -0.5571,-0.836 -0.957,-1.14 L 22.42,20.809 C 22.0499,20.5308 21.625,20.3345 21.1733,20.233 20.7216,20.1314 20.2535,20.127 19.8,20.22 l -2.485,0.5 c -0.255,0.0525 -0.5199,0.0266 -0.7598,-0.0745 -0.2399,-0.101 -0.4436,-0.2724 -0.5842,-0.4915 l -0.1,-0.147 c -0.141,-0.212 -0.2149,-0.4615 -0.212,-0.716 7e-4,-0.3421 0.1361,-0.6701 0.377,-0.913 0.3068,-0.3049 0.5499,-0.6677 0.7154,-1.0674 C 16.9169,16.911 17.0014,16.4825 17,16.05 v -1.1 c -6e-4,-0.1696 0.0323,-0.3375 0.097,-0.4943 0.0648,-0.1567 0.1599,-0.299 0.28,-0.4187 l 1.95,-1.95 c 0.36,-0.3621 0.6315,-0.8026 0.793,-1.287 L 20.408,9.923 C 20.6349,9.25637 20.6398,8.53419 20.4221,7.86452 20.2043,7.19485 19.7756,6.61369 19.2,6.208 L 17.61,5.065 C 22.099,3.52771 26.9915,3.65834 31.392,5.433 L 29.5,8.852 c -0.3257,0.58042 -0.4978,1.2344 -0.5,1.9 v 0.82 c -0.0014,0.5674 0.1211,1.1282 0.3588,1.6433 0.2377,0.5152 0.5849,0.9723 1.0175,1.3394 0.4325,0.3672 0.94,0.6355 1.4869,0.7863 0.547,0.1509 1.1202,0.1805 1.6798,0.087 l 2.068,-0.343 c 0.5012,-0.0862 0.9803,-0.2714 1.409,-0.545 l 3.3,-2.06 c 0.7751,1.092 1.4385,2.2592 1.98,3.484 L 39.264,17.7 c -0.2905,0.1645 -0.6284,0.2252 -0.958,0.172 l -3.572,-0.6 c -0.723,-0.1185 -1.465,-0.0047 -2.1192,0.3252 -0.6542,0.3298 -1.1869,0.8586 -1.5216,1.5104 -0.3347,0.6517 -0.454,1.3928 -0.3408,2.1167 0.1132,0.7239 0.453,1.3932 0.9706,1.9117 l 1.041,1.041 c 0.2035,0.2041 0.3426,0.4635 0.4,0.746 l 0.7,3.551 c 0.1386,0.6676 0.4695,1.2801 0.952,1.762 l 2.03,2.03 c 0.1701,0.1704 0.2967,0.3793 0.369,0.609 l 1.41,4.714 c -1.864,2.0192 -4.1254,3.6311 -6.6423,4.7344 C 29.4659,43.4267 26.7481,43.9975 24,44 Z M 40.163,35.731 39.136,32.3 c -0.1667,-0.5448 -0.4652,-1.0401 -0.869,-1.442 l -2.031,-2.031 c -0.2035,-0.2041 -0.3426,-0.4635 -0.4,-0.746 l -0.7,-3.551 c -0.1386,-0.6676 -0.4695,-1.2801 -0.952,-1.762 l -1.04,-1.039 c -0.2204,-0.2173 -0.366,-0.4991 -0.416,-0.8046 -0.0499,-0.3054 -0.0015,-0.6189 0.1382,-0.8951 0.1397,-0.2762 0.3635,-0.5009 0.6392,-0.6417 0.2757,-0.1408 0.5889,-0.1904 0.8946,-0.1416 l 3.574,0.6 c 0.7838,0.1289 1.588,-0.0155 2.278,-0.409 l 2.768,-1.584 c 0.9751,2.9932 1.2241,6.1753 0.7267,9.2837 -0.4975,3.1084 -1.7272,6.0539 -3.5877,8.5933 z"
         fill="#000000"
         id="path6234" />
    </g>
    <g
       id="g6219"
       transform="matrix(0.95734387,0,0,0.95734387,-1.3040673,0.00457697)"
       style="fill:#ffffff;stroke:none">
      <rect
         style="fill:#ffffff;fill-rule:evenodd;stroke:none;stroke-width:0.548002"
         id="rect972"
         width="16.964106"
         height="5.6547017"
         x="1.8118933"
         y="11.754344"
         ry="1.1277766" />
      <g
         aria-label=".com"
         id="text1804"
         style="font-size:10.5833px;line-height:1.25;font-family:'Space Grotesk';-inkscape-font-specification:'Space Grotesk';letter-spacing:0px;fill:#000000;stroke:none;stroke-width:0.264583"
         transform="matrix(0.74262428,0,0,0.74262428,-20.8026,10.357675)">
        <path
           d="M 30.128391,8.9958334 V 7.5437303 h 1.452103 v 1.4521031 z"
           style="font-weight:bold;font-family:Arial;-inkscape-font-specification:'Arial Bold';fill:#000000;stroke:none"
           id="path5988" />
        <path
           d="M 37.853993,5.1304486 36.42256,5.3888299 Q 36.35021,4.9599169 36.091832,4.7428766 35.838618,4.5258362 35.430376,4.5258362 q -0.542601,0 -0.868161,0.3772368 -0.320393,0.3720691 -0.320393,1.2505657 0,0.9766814 0.32556,1.3797563 0.330728,0.4030749 0.883664,0.4030749 0.41341,0 0.676959,-0.2325432 0.263549,-0.2377108 0.37207,-0.8113174 l 1.426265,0.2428785 q -0.222208,0.981849 -0.852659,1.4831088 -0.63045,0.5012598 -1.689814,0.5012598 -1.204057,0 -1.922357,-0.7596411 -0.713132,-0.7596411 -0.713132,-2.1032241 0,-1.3590858 0.7183,-2.1135593 0.7183,-0.7596412 1.943027,-0.7596412 1.00252,0 1.591629,0.4340807 0.594277,0.428913 0.852659,1.3125772 z"
           style="font-weight:bold;font-family:Arial;-inkscape-font-specification:'Arial Bold';fill:#000000;stroke:none"
           id="path5990" />
        <path
           d="m 38.618801,6.1743092 q 0,-0.7234678 0.356567,-1.4004269 0.356566,-0.6769591 1.007687,-1.0335253 0.656288,-0.3565663 1.462438,-0.3565663 1.245398,0 2.041213,0.8113174 0.795814,0.8061498 0.795814,2.0412126 0,1.2453981 -0.806149,2.0670507 -0.800983,0.816485 -2.020543,0.816485 -0.754473,0 -1.441767,-0.3410633 Q 39.331934,8.4377297 38.975368,7.7814411 38.618801,7.1199849 38.618801,6.1743092 Z m 1.488277,0.077514 q 0,0.816485 0.387572,1.2505657 0.387572,0.4340806 0.956011,0.4340806 0.568439,0 0.950843,-0.4340806 0.387572,-0.4340807 0.387572,-1.260901 0,-0.8061498 -0.387572,-1.2402304 -0.382404,-0.4340806 -0.950843,-0.4340806 -0.568439,0 -0.956011,0.4340806 -0.387572,0.4340806 -0.387572,1.2505657 z"
           style="font-weight:bold;font-family:Arial;-inkscape-font-specification:'Arial Bold';fill:#000000;stroke:none"
           id="path5992" />
        <path
           d="m 45.310879,3.5078138 h 1.338415 v 0.7493058 q 0.7183,-0.8733289 1.710484,-0.8733289 0.527098,0 0.91467,0.2170403 0.387572,0.2170404 0.635618,0.6562886 0.361734,-0.4392482 0.780312,-0.6562886 0.418578,-0.2170403 0.893999,-0.2170403 0.604613,0 1.023191,0.2480461 0.418577,0.2428785 0.625282,0.7183001 0.149862,0.3513986 0.149862,1.1368779 V 8.9958334 H 51.930608 V 5.8590839 q 0,-0.816485 -0.149861,-1.0541958 -0.201537,-0.3100576 -0.620115,-0.3100576 -0.30489,0 -0.573606,0.1860345 -0.268717,0.1860346 -0.387572,0.5477685 -0.118856,0.3565662 -0.118856,1.1317102 V 8.9958334 H 48.628495 V 5.9882746 q 0,-0.8009821 -0.07751,-1.0335253 -0.07751,-0.2325432 -0.242879,-0.346231 -0.160196,-0.1136878 -0.439248,-0.1136878 -0.335896,0 -0.604612,0.1808669 -0.268717,0.1808669 -0.387572,0.5219303 -0.113688,0.3410634 -0.113688,1.1317103 v 2.6664954 h -1.452103 z"
           style="font-weight:bold;font-family:Arial;-inkscape-font-specification:'Arial Bold';fill:#000000;stroke:none"
           id="path5994" />
      </g>
    </g>
  </g>
</svg>
