<?xml version="1.0" encoding="UTF-8" standalone="no"?>
<!-- Created with Inkscape (http://www.inkscape.org/) -->

<svg width="100" height="27" viewBox="0 0 26.458333 7.1437502" version="1.1" id="svg5" inkscape:version="1.1.2 (b8e25be833, 2022-02-05)" sodipodi:docname="logo.svg" xmlns:inkscape="http://www.inkscape.org/namespaces/inkscape" xmlns:sodipodi="http://sodipodi.sourceforge.net/DTD/sodipodi-0.dtd" xmlns="http://www.w3.org/2000/svg" xmlns:svg="http://www.w3.org/2000/svg">
   <sodipodi:namedview id="namedview7" pagecolor="#ffffff" bordercolor="#999999" borderopacity="1" inkscape:pageshadow="0" inkscape:pageopacity="0" inkscape:pagecheckerboard="0" inkscape:document-units="mm" showgrid="false" units="px" inkscape:zoom="11.95" inkscape:cx="50" inkscape:cy="13.472803" inkscape:window-width="1350" inkscape:window-height="699" inkscape:window-x="1366" inkscape:window-y="0" inkscape:window-maximized="1" inkscape:current-layer="layer1" />
   <defs id="defs2" />
   <g inkscape:label="Layer 1" inkscape:groupmode="layer" id="layer1">
      <g id="g1036" transform="matrix(0.49918579,0,0,0.49918579,20.273141,-69.411806)">
         <path class="oxyian-svg-fill-primary" id="path11074" style="fill:#000033;fill-opacity:1;fill-rule:evenodd;stroke:none;stroke-width:0.0732899" inkscape:label="Base" d="m -35.529559,152.85159 a 6.756993,6.756993 0 0 0 1.943366,0.30886 6.756993,6.756993 0 0 0 5.751733,-3.22736 5.0952284,5.0952284 0 0 0 3.657953,1.5656 5.0952284,5.0952284 0 0 0 3.399312,-1.30036 4.7158298,4.7158298 0 0 1 -0.146111,-0.10793 4.7158298,4.7158298 0 0 1 -0.267535,-0.22994 4.7158298,4.7158298 0 0 1 -0.249164,-0.24945 4.7158298,4.7158298 0 0 1 -0.230221,-0.26724 4.7158298,4.7158298 0 0 1 -0.209262,-0.28362 4.7158298,4.7158298 0 0 1 -0.187734,-0.29882 4.7158298,4.7158298 0 0 1 -0.164771,-0.31174 4.7158298,4.7158298 0 0 1 -0.118555,-0.27185 2.5476141,2.5476141 0 0 1 -0.09329,0.0933 2.5476141,2.5476141 0 0 1 -0.144389,0.12429 2.5476141,2.5476141 0 0 1 -0.153288,0.1131 2.5476141,2.5476141 0 0 1 -0.161326,0.10133 2.5476141,2.5476141 0 0 1 -0.168501,0.089 2.5476141,2.5476141 0 0 1 -0.174531,0.0764 2.5476141,2.5476141 0 0 1 -0.179695,0.0629 2.5476141,2.5476141 0 0 1 -0.184002,0.0494 2.5476141,2.5476141 0 0 1 -0.187449,0.0353 2.5476141,2.5476141 0 0 1 -0.189168,0.0212 2.5476141,2.5476141 0 0 1 -0.190319,0.007 2.5476141,2.5476141 0 0 1 -0.190606,-0.007 2.5476141,2.5476141 0 0 1 -0.18917,-0.0212 2.5476141,2.5476141 0 0 1 -0.18716,-0.0353 2.5476141,2.5476141 0 0 1 -0.184004,-0.0494 2.5476141,2.5476141 0 0 1 -0.179984,-0.0629 2.5476141,2.5476141 0 0 1 -0.174527,-0.0764 2.5476141,2.5476141 0 0 1 -0.168501,-0.089 2.5476141,2.5476141 0 0 1 -0.161326,-0.10133 2.5476141,2.5476141 0 0 1 -0.15329,-0.1131 2.5476141,2.5476141 0 0 1 -0.144387,-0.12429 2.5476141,2.5476141 0 0 1 -0.134629,-0.13463 2.5476141,2.5476141 0 0 1 -0.124295,-0.14439 2.5476141,2.5476141 0 0 1 -0.113103,-0.15329 2.5476141,2.5476141 0 0 1 -0.101328,-0.16132 2.5476141,2.5476141 0 0 1 -0.08899,-0.1685 2.5476141,2.5476141 0 0 1 -0.07636,-0.17454 2.5476141,2.5476141 0 0 1 -0.06286,-0.17998 2.5476141,2.5476141 0 0 1 -0.04937,-0.184 2.5476141,2.5476141 0 0 1 -0.03531,-0.18716 2.5476141,2.5476141 0 0 1 -0.02123,-0.18946 2.5476141,2.5476141 0 0 1 -0.0072,-0.19032 2.5476141,2.5476141 0 0 1 0.0072,-0.19031 2.5476141,2.5476141 0 0 1 0.02123,-0.18946 2.5476141,2.5476141 0 0 1 0.03531,-0.18716 2.5476141,2.5476141 0 0 1 0.04937,-0.184 2.5476141,2.5476141 0 0 1 0.06286,-0.1797 2.5476141,2.5476141 0 0 1 0.07636,-0.17482 2.5476141,2.5476141 0 0 1 0.08899,-0.16821 2.5476141,2.5476141 0 0 1 0.101328,-0.16133 2.5476141,2.5476141 0 0 1 0.113103,-0.15328 2.5476141,2.5476141 0 0 1 0.124295,-0.1444 2.5476141,2.5476141 0 0 1 0.134629,-0.13491 2.5476141,2.5476141 0 0 1 0.144387,-0.12429 2.5476141,2.5476141 0 0 1 0.15329,-0.11311 2.5476141,2.5476141 0 0 1 0.161326,-0.10133 2.5476141,2.5476141 0 0 1 0.168501,-0.089 2.5476141,2.5476141 0 0 1 0.174527,-0.0761 2.5476141,2.5476141 0 0 1 0.179984,-0.0632 2.5476141,2.5476141 0 0 1 0.184004,-0.0491 2.5476141,2.5476141 0 0 1 0.18716,-0.0356 2.5476141,2.5476141 0 0 1 0.18917,-0.0212 2.5476141,2.5476141 0 0 1 0.190606,-0.007 2.5476141,2.5476141 0 0 1 0.06545,9.5e-4 2.5476141,2.5476141 0 0 1 0.06545,0.003 2.5476141,2.5476141 0 0 1 0.06574,0.004 2.5476141,2.5476141 0 0 1 0.06516,0.006 2.5476141,2.5476141 0 0 1 0.06516,0.007 2.5476141,2.5476141 0 0 1 0.06487,0.009 2.5476141,2.5476141 0 0 1 0.06487,0.0109 2.5476141,2.5476141 0 0 1 0.0643,0.0126 2.5476141,2.5476141 0 0 1 0.06401,0.0141 2.5476141,2.5476141 0 0 1 0.06372,0.0161 2.5476141,2.5476141 0 0 1 0.06315,0.0175 2.5476141,2.5476141 0 0 1 0.06286,0.0189 2.5476141,2.5476141 0 0 1 0.062,0.0209 2.5476141,2.5476141 0 0 1 0.06172,0.0221 2.5476141,2.5476141 0 0 1 0.06114,0.0241 2.5476141,2.5476141 0 0 1 0.06057,0.0255 2.5476141,2.5476141 0 0 1 0.0597,0.027 2.5476141,2.5476141 0 0 1 0.05914,0.0284 2.5476141,2.5476141 0 0 1 0.05827,0.0301 2.5476141,2.5476141 0 0 1 0.05741,0.0316 2.5476141,2.5476141 0 0 1 0.05655,0.033 2.5476141,2.5476141 0 0 1 0.05598,0.0344 2.5476141,2.5476141 0 0 1 0.05483,0.0362 2.5476141,2.5476141 0 0 1 0.05397,0.0373 2.5476141,2.5476141 0 0 1 0.05282,0.0385 2.5476141,2.5476141 0 0 1 0.05224,0.0402 2.5476141,2.5476141 0 0 1 0.05081,0.0413 2.5476141,2.5476141 0 0 1 0.04966,0.0428 2.5476141,2.5476141 0 0 1 0.0488,0.0439 2.5476141,2.5476141 0 0 1 0.04765,0.0451 2.5476141,2.5476141 0 0 1 0.04622,0.0465 2.5476141,2.5476141 0 0 1 0.0022,0.002 4.7158298,4.7158298 0 0 1 0.117979,-0.2704 4.7158298,4.7158298 0 0 1 0.164772,-0.31174 4.7158298,4.7158298 0 0 1 0.187731,-0.29854 4.7158298,4.7158298 0 0 1 0.209265,-0.2839 4.7158298,4.7158298 0 0 1 0.230218,-0.26725 4.7158298,4.7158298 0 0 1 0.249167,-0.24945 4.7158298,4.7158298 0 0 1 0.267535,-0.22993 4.7158298,4.7158298 0 0 1 0.144389,-0.1065 5.0952284,5.0952284 0 0 0 -3.39759,-1.3018 5.0952284,5.0952284 0 0 0 -3.657953,1.5656 6.756993,6.756993 0 0 0 -5.751735,-3.22736 6.756993,6.756993 0 0 0 -1.937337,0.30744 7.851401,7.9142124 0 0 1 0.06746,0.0468 7.851401,7.9142124 0 0 1 0.326096,0.25232 7.851401,7.9142124 0 0 1 0.312318,0.26898 7.851401,7.9142124 0 0 1 0.298251,0.28533 7.851401,7.9142124 0 0 1 0.283036,0.30055 7.851401,7.9142124 0 0 1 0.266963,0.31519 7.851401,7.9142124 0 0 1 0.250311,0.32867 7.851401,7.9142124 0 0 1 0.232804,0.34131 7.851401,7.9142124 0 0 1 0.214716,0.35337 7.851401,7.9142124 0 0 1 0.19606,0.36398 7.851401,7.9142124 0 0 1 0.121137,0.25606 3.3968191,3.3968191 0 0 1 0.06286,0.0121 3.3968191,3.3968191 0 0 1 0.08554,0.0192 3.3968191,3.3968191 0 0 1 0.08468,0.0209 3.3968191,3.3968191 0 0 1 0.08439,0.0235 3.3968191,3.3968191 0 0 1 0.08353,0.0255 3.3968191,3.3968191 0 0 1 0.08296,0.0276 3.3968191,3.3968191 0 0 1 0.08239,0.0298 3.3968191,3.3968191 0 0 1 0.08152,0.0319 3.3968191,3.3968191 0 0 1 0.08038,0.0339 3.3968191,3.3968191 0 0 1 0.0798,0.0362 3.3968191,3.3968191 0 0 1 0.07866,0.0382 3.3968191,3.3968191 0 0 1 0.07779,0.0399 3.3968191,3.3968191 0 0 1 0.07665,0.0422 3.3968191,3.3968191 0 0 1 0.0755,0.0442 3.3968191,3.3968191 0 0 1 0.07435,0.0459 3.3968191,3.3968191 0 0 1 0.0732,0.0479 3.3968191,3.3968191 0 0 1 0.07205,0.0497 3.3968191,3.3968191 0 0 1 0.07062,0.0517 3.3968191,3.3968191 0 0 1 0.06918,0.0534 3.3968191,3.3968191 0 0 1 0.06803,0.0551 3.3968191,3.3968191 0 0 1 0.06631,0.0568 3.3968191,3.3968191 0 0 1 0.06516,0.0586 3.3968191,3.3968191 0 0 1 0.06344,0.0603 3.3968191,3.3968191 0 0 1 0.06172,0.0617 3.3968191,3.3968191 0 0 1 0.06028,0.0634 3.3968191,3.3968191 0 0 1 0.05856,0.0652 3.3968191,3.3968191 0 0 1 0.05684,0.0663 3.3968191,3.3968191 0 0 1 0.05511,0.068 3.3968191,3.3968191 0 0 1 0.05339,0.0692 3.3968191,3.3968191 0 0 1 0.05167,0.0706 3.3968191,3.3968191 0 0 1 0.04966,0.0721 3.3968191,3.3968191 0 0 1 0.04794,0.0732 3.3968191,3.3968191 0 0 1 0.04593,0.0744 3.3968191,3.3968191 0 0 1 0.04421,0.0755 3.3968191,3.3968191 0 0 1 0.0422,0.0767 3.3968191,3.3968191 0 0 1 0.0399,0.0778 3.3968191,3.3968191 0 0 1 0.03818,0.0787 3.3968191,3.3968191 0 0 1 0.03617,0.0798 3.3968191,3.3968191 0 0 1 0.03387,0.0807 3.3968191,3.3968191 0 0 1 0.03186,0.0812 3.3968191,3.3968191 0 0 1 0.02985,0.0824 3.3968191,3.3968191 0 0 1 0.02755,0.083 3.3968191,3.3968191 0 0 1 0.02554,0.0835 3.3968191,3.3968191 0 0 1 0.02353,0.0844 3.3968191,3.3968191 0 0 1 0.02095,0.0847 3.3968191,3.3968191 0 0 1 0.01922,0.0855 3.3968191,3.3968191 0 0 1 0.01664,0.0858 3.3968191,3.3968191 0 0 1 0.01465,0.0861 3.3968191,3.3968191 0 0 1 0.01235,0.0867 3.3968191,3.3968191 0 0 1 0.01005,0.087 3.3968191,3.3968191 0 0 1 0.008,0.087 3.3968191,3.3968191 0 0 1 0.0055,0.0873 3.3968191,3.3968191 0 0 1 0.0034,0.0876 3.3968191,3.3968191 0 0 1 0.0012,0.0873 3.3968191,3.3968191 0 0 1 -0.0095,0.25404 3.3968191,3.3968191 0 0 1 -0.02842,0.25232 3.3968191,3.3968191 0 0 1 -0.04736,0.24974 3.3968191,3.3968191 0 0 1 -0.06574,0.24515 3.3968191,3.3968191 0 0 1 -0.08382,0.23997 3.3968191,3.3968191 0 0 1 -0.10162,0.23281 3.3968191,3.3968191 0 0 1 -0.118839,0.22447 3.3968191,3.3968191 0 0 1 -0.134916,0.21501 3.3968191,3.3968191 0 0 1 -0.150992,0.20438 3.3968191,3.3968191 0 0 1 -0.165628,0.19262 3.3968191,3.3968191 0 0 1 -0.179698,0.17969 3.3968191,3.3968191 0 0 1 -0.192615,0.16563 3.3968191,3.3968191 0 0 1 -0.204383,0.15099 3.3968191,3.3968191 0 0 1 -0.215005,0.13492 3.3968191,3.3968191 0 0 1 -0.224476,0.11884 3.3968191,3.3968191 0 0 1 -0.232804,0.10162 3.3968191,3.3968191 0 0 1 -0.239979,0.0838 3.3968191,3.3968191 0 0 1 -0.245145,0.0657 3.3968191,3.3968191 0 0 1 -0.14037,0.0267 7.851401,7.9142124 0 0 1 -0.104777,0.25461 7.851401,7.9142124 0 0 1 -0.643577,1.05895 7.851401,7.9142124 0 0 1 -0.80031,0.94413 7.851401,7.9142124 0 0 1 -0.936665,0.80663 7.851401,7.9142124 0 0 1 -0.07348,0.0453 z" />
         <path class="oxyian-svg-fill-primary" id="path2040" style="fill:#000033;fill-opacity:1;fill-rule:evenodd;stroke:none;stroke-width:0.0732898" inkscape:label="Base" d="m -36.387105,152.51757 a 7.4744791,7.4744791 0 0 0 0.197919,-0.13229 7.4744791,7.4744791 0 0 0 0.735356,-0.64492 7.4744791,7.4744791 0 0 0 0.644406,-0.73484 7.4744791,7.4744791 0 0 0 0.543118,-0.81339 7.4744791,7.4744791 0 0 0 0.210323,-0.42581 3.396819,3.396819 0 0 1 -0.03669,-0.004 3.396819,3.396819 0 0 1 -0.249597,-0.047 3.396819,3.396819 0 0 1 -0.245462,-0.0656 3.396819,3.396819 0 0 1 -0.239779,-0.0842 3.396819,3.396819 0 0 1 -0.232545,-0.10128 3.396819,3.396819 0 0 1 -0.224792,-0.11886 3.396819,3.396819 0 0 1 -0.21549,-0.13487 3.396819,3.396819 0 0 1 -0.204124,-0.15141 3.396819,3.396819 0 0 1 -0.192235,-0.16537 3.396819,3.396819 0 0 1 -0.179835,-0.17983 3.396819,3.396819 0 0 1 -0.165365,-0.19224 3.396819,3.396819 0 0 1 -0.15141,-0.20464 3.396819,3.396819 0 0 1 -0.134877,-0.21497 3.396819,3.396819 0 0 1 -0.118856,-0.22428 3.396819,3.396819 0 0 1 -0.101285,-0.23306 3.396819,3.396819 0 0 1 -0.08423,-0.23978 3.396819,3.396819 0 0 1 -0.06563,-0.24546 3.396819,3.396819 0 0 1 -0.04702,-0.2496 3.396819,3.396819 0 0 1 -0.02842,-0.25218 3.396819,3.396819 0 0 1 -0.0098,-0.25425 3.396819,3.396819 0 0 1 0.0098,-0.25373 3.396819,3.396819 0 0 1 0.02842,-0.25218 3.396819,3.396819 0 0 1 0.04702,-0.2496 3.396819,3.396819 0 0 1 0.06563,-0.24546 3.396819,3.396819 0 0 1 0.08423,-0.23978 3.396819,3.396819 0 0 1 0.101285,-0.23306 3.396819,3.396819 0 0 1 0.118856,-0.22427 3.396819,3.396819 0 0 1 0.134877,-0.21549 3.396819,3.396819 0 0 1 0.15141,-0.20413 3.396819,3.396819 0 0 1 0.165365,-0.19223 3.396819,3.396819 0 0 1 0.179835,-0.17984 3.396819,3.396819 0 0 1 0.192235,-0.16588 3.396819,3.396819 0 0 1 0.204124,-0.15089 3.396819,3.396819 0 0 1 0.21549,-0.13488 3.396819,3.396819 0 0 1 0.224792,-0.11885 3.396819,3.396819 0 0 1 0.232545,-0.10181 3.396819,3.396819 0 0 1 0.239779,-0.0837 3.396819,3.396819 0 0 1 0.245462,-0.0656 3.396819,3.396819 0 0 1 0.249597,-0.0475 3.396819,3.396819 0 0 1 0.0031,-5.3e-4 7.4744791,7.4744791 0 0 0 -0.01963,-0.0398 7.4744791,7.4744791 0 0 0 -0.157097,-0.28629 7.4744791,7.4744791 0 0 0 -0.168981,-0.27854 7.4744791,7.4744791 0 0 0 -0.181385,-0.2713 7.4744791,7.4744791 0 0 0 -0.192752,-0.26303 7.4744791,7.4744791 0 0 0 -0.204123,-0.25425 7.4744791,7.4744791 0 0 0 -0.214974,-0.24495 7.4744791,7.4744791 0 0 0 -0.225309,-0.23564 7.4744791,7.4744791 0 0 0 -0.235646,-0.22531 7.4744791,7.4744791 0 0 0 -0.245462,-0.21549 7.4744791,7.4744791 0 0 0 -0.254248,-0.20412 7.4744791,7.4744791 0 0 0 -0.263033,-0.19276 7.4744791,7.4744791 0 0 0 -0.01704,-0.0114 6.7569928,6.7569928 0 0 0 -3.874183,6.08231 6.7569928,6.7569928 0 0 0 3.956349,6.11436 z" />
         <path class="oxyian-svg-fill-primary" d="m -15.816678,147.30127 1.778268,-5.04306 h 2.570153 l -4.334529,10.66267 h -2.709079 l 1.236451,-2.91747 -3.035558,-7.7452 h 2.625723 z" style="font-weight:bold;font-size:59.4261px;line-height:1.25;font-family:sans-serif;-inkscape-font-specification:'sans-serif Bold';letter-spacing:0px;fill:#000033;fill-opacity:1;stroke-width:0.355653" id="path15949" />
         <path class="oxyian-svg-fill-primary" d="m -7.5782947,150.05898 h -2.5006913 v -7.80077 h 2.5006913 z m 0.069464,-8.91218 h -2.6396173 v -1.89636 h 2.6396173 z" style="font-weight:bold;font-size:59.4261px;line-height:1.25;font-family:sans-serif;-inkscape-font-specification:'sans-serif Bold';letter-spacing:0px;fill:#000033;fill-opacity:1;stroke-width:0.355653" id="path15951" />
         <path class="oxyian-svg-fill-primary" d="m -0.49300889,148.02369 v -1.62544 q -0.50708291,0.0417 -1.09752461,0.11808 -0.5904393,0.0695 -0.8960785,0.16672 -0.3751036,0.11808 -0.5765497,0.34731 -0.1944966,0.22229 -0.1944966,0.59044 0,0.24313 0.041678,0.39595 0.041678,0.15282 0.2083909,0.29174 0.1597655,0.13893 0.3820484,0.20839 0.2222852,0.0625 0.6946371,0.0625 0.3751036,0 0.757152,-0.15282 0.38899555,-0.15282 0.68074281,-0.40289 z m 0,1.20867 q -0.20144374,0.15282 -0.50013577,0.36816 -0.29869444,0.21533 -0.56265544,0.34037 -0.3681588,0.16671 -0.7641016,0.24312 -0.3959403,0.0834 -0.8682946,0.0834 -1.1114165,0 -1.8616238,-0.68769 -0.7502072,-0.68769 -0.7502072,-1.75743 0,-0.8544 0.3820508,-1.39622 0.3820484,-0.54182 1.0836327,-0.8544 0.6946347,-0.31259 1.7226973,-0.44457 1.0280602,-0.13198 2.13253194,-0.1945 v -0.0417 q 0,-0.64601 -0.52792444,-0.88913 -0.527922,-0.25007 -1.5559846,-0.25007 -0.6182255,0 -1.3198074,0.22228 -0.7015819,0.21534 -1.0072235,0.33343 h -0.22923 v -1.88246 q 0.3959427,-0.1042 1.2850764,-0.24313 0.8960809,-0.14587 1.7921618,-0.14587 2.13253194,0 3.0772382,0.6599 0.9516509,0.65296 0.9516509,2.05613 v 5.30702 h -2.47985169 z" style="font-weight:bold;font-size:59.4261px;line-height:1.25;font-family:sans-serif;-inkscape-font-specification:'sans-serif Bold';letter-spacing:0px;fill:#000033;fill-opacity:1;stroke-width:0.355653" id="path15953" />
         <path class="oxyian-svg-fill-primary" d="M 12.121581,150.05898 H 9.6069979 v -3.86913 q 0,-0.47235 -0.048623,-0.93775 -0.048625,-0.47236 -0.1667127,-0.69464 -0.1389265,-0.25702 -0.4098346,-0.37511 -0.2639634,-0.11808 -0.7432625,-0.11808 -0.3403702,0 -0.6946347,0.11114 -0.3473174,0.11114 -0.7571545,0.35426 v 5.52931 H 4.2860875 v -7.80077 h 2.5006884 v 0.86135 q 0.6668509,-0.52097 1.2781317,-0.79883 0.6182255,-0.27785 1.3684328,-0.27785 1.2642376,0 1.9727666,0.73631 0.715474,0.73632 0.715474,2.202 z" style="font-weight:bold;font-size:59.4261px;line-height:1.25;font-family:sans-serif;-inkscape-font-specification:'sans-serif Bold';letter-spacing:0px;fill:#000033;fill-opacity:1;stroke-width:0.355653" id="path15955" />
      </g>
   </g>
</svg>