<?xml version="1.0" encoding="UTF-8" standalone="no"?>
<!-- Created with Inkscape (http://www.inkscape.org/) -->

<svg
   width="466"
   height="623"
   viewBox="0 0 123.29595 164.83568"
   version="1.1"
   id="svg891"
   inkscape:version="1.1.2 (b8e25be833, 2022-02-05)"
   sodipodi:docname="designer-home.svg"
   inkscape:export-filename="E:\oxyian-project\internal\oxyian-theme\asset\img\banner\designer-home.png"
   inkscape:export-xdpi="103.97974"
   inkscape:export-ydpi="103.97974"
   xmlns:inkscape="http://www.inkscape.org/namespaces/inkscape"
   xmlns:sodipodi="http://sodipodi.sourceforge.net/DTD/sodipodi-0.dtd"
   xmlns:xlink="http://www.w3.org/1999/xlink"
   xmlns="http://www.w3.org/2000/svg"
   xmlns:svg="http://www.w3.org/2000/svg">
  <sodipodi:namedview
     id="namedview893"
     pagecolor="#ffffff"
     bordercolor="#999999"
     borderopacity="1"
     inkscape:pageshadow="0"
     inkscape:pageopacity="0"
     inkscape:pagecheckerboard="0"
     inkscape:document-units="mm"
     showgrid="false"
     units="px"
     inkscape:zoom="1.2633641"
     inkscape:cx="166.61863"
     inkscape:cy="292.07732"
     inkscape:window-width="1366"
     inkscape:window-height="745"
     inkscape:window-x="1358"
     inkscape:window-y="-8"
     inkscape:window-maximized="1"
     inkscape:current-layer="g1400" />
  <defs
     id="defs888">
    <linearGradient
       inkscape:collect="always"
       id="linearGradient2484">
      <stop
         style="stop-color:#9c27b0;stop-opacity:1"
         offset="0"
         id="stop2480" />
      <stop
         style="stop-color:#00bcd4;stop-opacity:1"
         offset="1"
         id="stop2482" />
    </linearGradient>
    <linearGradient
       inkscape:collect="always"
       xlink:href="#linearGradient2484"
       id="linearGradient2478"
       x1="-49.284534"
       y1="129.4243"
       x2="-12.733956"
       y2="146.0287"
       gradientUnits="userSpaceOnUse" />
  </defs>
  <g
     inkscape:label="Layer 1"
     inkscape:groupmode="layer"
     id="layer1">
    <g
       id="g1278"
       transform="matrix(0.53899076,0,0,0.53899076,32.87495,71.597727)" />
    <g
       id="g1400"
       transform="matrix(0.93018,0,0,0.93018,-0.26820863,-5.3587881)">
      <path
         class="cls-2"
         d="m -11.777198,-121.88353 c -10.920143,5.50061 -18.55584,20.77001 -20.998479,38.537049 -3.840265,27.932928 5.155428,62.039351 34.40401,74.0632892 56.040374,23.0366598 71.891015,-35.7120722 115.034687,-21.5286842 37.51741,12.33749 40.74121,56.219149 11.71992,77.525803"
         id="path10"
         style="fill:none;stroke:#000033;stroke-width:0.529167;stroke-linecap:round;stroke-linejoin:round;stroke-miterlimit:4;stroke-dasharray:3.175;stroke-dashoffset:0;stroke-opacity:1"
         sodipodi:nodetypes="csccc"
         transform="matrix(0.53899075,0,0,0.53899075,32.87495,71.597726)" />
      <path
         class="cls-3"
         d="M 40.020216,48.654854 C 36.538048,47.322137 19.152539,33.295334 17.797661,31.082576 16.442782,28.869819 7.4461317,14.805038 7.4461317,14.805038 L 22.590387,3.2569057 c 0,0 13.64376,12.2635573 16.299706,14.7327303 2.65594,2.469173 12.918834,6.41035 14.033132,6.407183 1.11429,-0.0032 -12.903009,24.258035 -12.903009,24.258035 z"
         id="path12"
         style="fill:#ffe6d5;fill-opacity:1;stroke-width:0.316563"
         transform="matrix(0.53899075,0,0,0.53899075,32.87495,71.597726)" />
      <path
         class="cls-4"
         d="M 36.028386,44.663027 C 33.951748,43.466428 17.231019,29.563088 15.581738,27.916972 13.932456,26.270857 7.3511622,15.792708 6.2938501,13.288713"
         id="path14"
         style="fill:none;stroke:#000033;stroke-width:0.264583;stroke-linecap:round;stroke-linejoin:round;stroke-miterlimit:4;stroke-dasharray:none;stroke-opacity:1"
         transform="matrix(0.53899075,0,0,0.53899075,32.87495,71.597726)" />
      <rect
         class="cls-6"
         x="-56.878147"
         y="-36.179173"
         width="188.14145"
         height="51.102371"
         rx="25.552771"
         transform="matrix(0.47412246,-0.25635705,0.25635705,0.47412246,32.87495,71.597726)"
         id="rect18"
         style="fill:#ffffff;fill-opacity:1;stroke-width:0.316563" />
      <rect
         class="cls-6"
         x="-57.985012"
         y="-38.582375"
         width="188.14145"
         height="51.102371"
         rx="25.552771"
         transform="matrix(0.47412246,-0.25635705,0.25635705,0.47412246,32.87495,71.597726)"
         id="rect18-7"
         style="fill:none;fill-opacity:1;stroke:#000033;stroke-width:0.316563;stroke-opacity:1" />
      <path
         class="cls-3"
         d="m 11.121398,-45.756169 c -2.4280178,-5.283396 -17.5912673,0.291234 -24.058605,5.6696 1.798069,5.910185 3.62462,11.111274 4.6661046,12.292044 1.2757415,0.132958 20.1902324,-9.439833 19.3925004,-17.961644 z"
         id="path26"
         style="fill:#ffe6d5;fill-opacity:1;stroke-width:0.316563"
         transform="matrix(0.53899075,0,0,0.53899075,32.87495,71.597726)" />
      <path
         class="cls-8"
         d="M 79.929005,34.529922 C 70.900697,27.249029 58.463034,22.374 54.866905,20.889328 c -2.61479,1.130123 -5.976663,7.100455 -8.939671,13.874851 -5.299223,9.949497 -6.964333,22.042112 -6.964333,22.042112 8.20525,5.099788 25.226714,8.357198 28.227708,8.357198 3.000994,0 12.738396,-30.633567 12.738396,-30.633567 z"
         id="path28"
         style="fill:#f5f7f8;fill-opacity:1;stroke-width:0.316563"
         transform="matrix(0.53899075,0,0,0.53899075,32.87495,71.597726)" />
      <path
         class="cls-8"
         d="M 96.614915,26.888154 C 128.35961,19.27487 142.86758,110.19736 149.76227,141.79957 143.01003,146.82655 83.113604,161.9075 71.191937,158.15944 49.216296,100.28589 41.590354,40.082394 96.614915,26.888154 Z"
         id="path30"
         style="fill:#f5f7f8;fill-opacity:1;stroke-width:0.316563"
         transform="matrix(0.53899075,0,0,0.53899075,32.87495,71.597726)" />
      <path
         class="cls-9"
         d="M 94.082427,23.722544 C 125.82712,16.109266 140.33509,107.03177 147.22978,138.63396 140.47755,143.66094 80.581121,158.7419 68.659448,154.99381 46.683813,97.120276 39.057868,36.916789 94.082427,23.722544 Z"
         id="path32"
         style="fill:none;stroke:#000033;stroke-width:0.264583;stroke-linecap:round;stroke-linejoin:round;stroke-miterlimit:4;stroke-dasharray:none;stroke-opacity:1"
         transform="matrix(0.53899075,0,0,0.53899075,32.87495,71.597726)" />
      <path
         class="cls-3"
         d="m 113.70602,83.660123 c -1.66511,2.409029 -16.863182,19.550767 -19.272208,20.753697 -2.409026,1.20293 -11.96599,1.04781 -13.805209,0 C 69.881371,98.297884 35.227487,44.463592 32.723494,39.366966 30.219499,34.270342 26.610709,27.046433 23.365962,24.358833 22.843638,20.404993 25.676854,15.229228 20.646707,8.9676596 21.571064,4.5548039 19.003756,-14.94533 33.625692,-7.0946284 c 3.849375,2.1051286 9.142267,10.3578651 8.411014,17.1544224 -0.731256,6.796555 -1.614459,14.517466 -0.151948,17.689404 1.462508,3.171938 41.184531,45.454928 42.210188,45.967759 1.266238,-1.655612 6.309048,-8.268562 6.309048,-8.268562 z"
         id="path34"
         style="fill:#ffccaa;fill-opacity:1;stroke-width:0.316563"
         transform="matrix(0.53899075,0,0,0.53899075,32.87495,71.597726)" />
      <path
         class="cls-8"
         d="M 128.60652,38.398292 C 143.96604,50.57321 125.28581,78.797753 118.36896,86.543991 115.20335,86.683279 87.706897,70.494372 86.298206,63.852925 90.283701,57.904756 111.49009,24.827341 128.60652,38.398292 Z"
         id="path36"
         style="fill:#f5f7f8;fill-opacity:1;stroke-width:0.316563"
         transform="matrix(0.53899075,0,0,0.53899075,32.87495,71.597726)" />
      <path
         class="cls-4"
         d="m 43.727137,56.448577 a 47.800648,47.800648 0 0 1 -6.964331,-3.441012 c -0.186772,-0.756582 0.101298,-2.450182 1.028819,-5.634781"
         id="path38"
         style="fill:none;stroke:#000033;stroke-width:0.264583;stroke-linecap:round;stroke-linejoin:round;stroke-miterlimit:4;stroke-dasharray:none;stroke-opacity:1"
         transform="matrix(0.53899075,0,0,0.53899075,32.87495,71.597726)" />
      <path
         class="cls-9"
         d="m 43.99938,30.310171 c 2.963008,-6.774396 6.036812,-12.089445 8.651599,-13.219568 3.596132,1.484669 15.460819,5.916516 24.489127,13.184748"
         id="path40"
         style="fill:none;stroke:#000033;stroke-width:0.264583;stroke-linecap:round;stroke-linejoin:round;stroke-miterlimit:4;stroke-dasharray:none;stroke-opacity:1"
         transform="matrix(0.53899075,0,0,0.53899075,32.87495,71.597726)" />
      <path
         class="cls-4"
         d="M 64.753092,52.782807 C 53.96154,41.817148 41.707482,28.797011 39.671998,23.950472 38.313955,21.101421 39.27313,2.3926945 41.849931,-1.6181252"
         id="path42"
         style="fill:none;stroke:#000033;stroke-width:0.264583;stroke-linecap:round;stroke-linejoin:round;stroke-miterlimit:4;stroke-dasharray:none;stroke-opacity:1"
         transform="matrix(0.53899075,0,0,0.53899075,32.87495,71.597726)" />
      <path
         class="cls-4"
         d="m 86.323529,64.25496 c -1.658776,1.747417 -3.130786,4.001325 -4.431848,5.663268 -0.373541,-0.430522 -2.510327,-2.532483 -5.647441,-5.641107"
         id="path44"
         style="fill:none;stroke:#000033;stroke-width:0.264583;stroke-linecap:round;stroke-linejoin:round;stroke-miterlimit:4;stroke-dasharray:none;stroke-opacity:1"
         transform="matrix(0.53899075,0,0,0.53899075,32.87495,71.597726)" />
      <path
         class="cls-4"
         d="m 95.123914,98.123774 c -1.345385,1.313733 -2.393198,2.234916 -2.906024,2.491336 -2.409031,1.20609 -11.965993,1.04781 -13.80521,0 C 67.665451,94.499157 33.011562,40.664866 30.507567,35.56824 28.003574,30.471617 24.394784,23.247705 21.150037,20.560107"
         id="path46"
         style="fill:none;stroke:#000033;stroke-width:0.264583;stroke-linecap:round;stroke-linejoin:round;stroke-miterlimit:4;stroke-dasharray:none;stroke-opacity:1"
         transform="matrix(0.53899075,0,0,0.53899075,32.87495,71.597726)" />
      <path
         class="cls-4"
         d="m 110.52142,81.099147 c -0.52866,0.762913 -2.31406,2.87437 -4.5838,5.444844"
         id="path48"
         style="fill:none;stroke:#000033;stroke-width:0.264583;stroke-linecap:round;stroke-linejoin:round;stroke-miterlimit:4;stroke-dasharray:none;stroke-opacity:1"
         transform="matrix(0.53899075,0,0,0.53899075,32.87495,71.597726)" />
      <path
         class="cls-4"
         d="M 35.724488,7.1885885 C 35.407928,1.8070605 32.216995,-9.6429418 29.801637,-12.121609"
         id="path50"
         style="fill:none;stroke:#000033;stroke-width:0.264583;stroke-linecap:round;stroke-linejoin:round;stroke-miterlimit:4;stroke-dasharray:none;stroke-opacity:1"
         transform="matrix(0.53899075,0,0,0.53899075,32.87495,71.597726)" />
      <path
         class="cls-4"
         d="M 30.270148,7.1885885 C 29.412268,3.6842637 25.983919,-7.3035564 22.476428,-12.75473"
         id="path52"
         style="fill:none;stroke:#000033;stroke-width:0.264583;stroke-linecap:round;stroke-linejoin:round;stroke-miterlimit:4;stroke-dasharray:none;stroke-opacity:1"
         transform="matrix(0.53899075,0,0,0.53899075,32.87495,71.597726)" />
      <path
         class="cls-4"
         d="M 25.594548,9.8381998 C 25.439436,7.9704927 22.476428,0.09763213 20.374464,-2.0834712"
         id="path54"
         style="fill:none;stroke:#000033;stroke-width:0.264583;stroke-linecap:round;stroke-linejoin:round;stroke-miterlimit:4;stroke-dasharray:none;stroke-opacity:1"
         transform="matrix(0.53899075,0,0,0.53899075,32.87495,71.597726)" />
      <path
         class="cls-4"
         d="M 22.007917,13.655921 C 21.618546,11.709074 19.203191,6.4889903 17.335484,4.6972579"
         id="path56"
         style="fill:none;stroke:#000033;stroke-width:0.264583;stroke-linecap:round;stroke-linejoin:round;stroke-miterlimit:4;stroke-dasharray:none;stroke-opacity:1"
         transform="matrix(0.53899075,0,0,0.53899075,32.87495,71.597726)" />
      <path
         class="cls-4"
         d="m 48.744624,21.231215 c -2.589467,-1.145947 -7.857033,-3.767068 -9.68992,-4.140612"
         id="path64"
         style="fill:none;stroke:#000033;stroke-width:0.264583;stroke-linecap:round;stroke-linejoin:round;stroke-miterlimit:4;stroke-dasharray:none;stroke-opacity:1"
         transform="matrix(0.53899075,0,0,0.53899075,32.87495,71.597726)" />
      <polyline
         class="cls-6"
         points="171.2 437.36 236.03 490.45 227.1 407.13"
         id="polyline66"
         style="fill:#ffffff;fill-opacity:1"
         transform="matrix(0.17062322,0,0,0.17062322,-4.980886,10.790714)" />
      <polyline
         class="cls-6"
         points="171.2 437.36 236.03 490.45 227.1 407.13"
         id="polyline66-0"
         style="fill:none;fill-opacity:1;stroke:#000033;stroke-opacity:1"
         transform="matrix(0.17062322,0,0,0.17062322,-5.5513176,9.6498481)" />
      <path
         class="cls-4"
         d="M 7.1643901,-50.105713 C 5.9171417,-51.425772 -5.1149936,-56.14252 3.4194803,-37.126729"
         id="path68"
         style="fill:none;stroke:#000033;stroke-width:0.264583;stroke-linecap:round;stroke-linejoin:round;stroke-miterlimit:4;stroke-dasharray:none;stroke-opacity:1"
         transform="matrix(0.53899075,0,0,0.53899075,32.87495,71.597726)" />
      <path
         class="cls-4"
         d="m -0.7812748,-47.421277 c -1.2662455,-1.320059 -12.2793862,-6.03681 -3.7480795,12.978979"
         id="path70"
         style="fill:none;stroke:#000033;stroke-width:0.264583;stroke-linecap:round;stroke-linejoin:round;stroke-miterlimit:4;stroke-dasharray:none;stroke-opacity:1"
         transform="matrix(0.53899075,0,0,0.53899075,32.87495,71.597726)" />
      <path
         class="cls-4"
         d="m -10.0565,-42.989432 c -1.209265,-1.111126 -10.595287,-4.115287 -0.449519,13.295548"
         id="path72"
         style="fill:none;stroke:#000033;stroke-width:0.264583;stroke-linecap:round;stroke-linejoin:round;stroke-miterlimit:4;stroke-dasharray:none;stroke-opacity:1"
         transform="matrix(0.53899075,0,0,0.53899075,32.87495,71.597726)" />
      <path
         class="cls-9"
         d="M 97.570929,73.321254 C 90.831351,68.76278 84.728065,63.726304 84.08228,60.684159"
         id="path78"
         style="fill:none;stroke:#000033;stroke-width:0.264583;stroke-linecap:round;stroke-linejoin:round;stroke-miterlimit:4;stroke-dasharray:none;stroke-opacity:1"
         transform="matrix(0.53899075,0,0,0.53899075,32.87495,71.597726)" />
      <path
         class="cls-9"
         d="m 130.9554,56.96457 c -3.10862,10.949829 -10.86119,22.000961 -14.80237,26.413814 -1.2884,0.05698 -6.56863,-2.570475 -12.48831,-6.153936"
         id="path80"
         style="fill:none;stroke:#000033;stroke-width:0.264583;stroke-linecap:round;stroke-linejoin:round;stroke-miterlimit:4;stroke-dasharray:none;stroke-opacity:1"
         transform="matrix(0.53899075,0,0,0.53899075,32.87495,71.597726)" />
      <path
         class="cls-9"
         d="m 92.21472,49.4146 c 8.70858,-10.794717 22.40933,-23.514117 34.18854,-14.181913 a 15.805869,15.805869 0 0 1 1.34222,1.187101"
         id="path82"
         style="fill:none;stroke:#000033;stroke-width:0.264583;stroke-linecap:round;stroke-linejoin:round;stroke-miterlimit:4;stroke-dasharray:none;stroke-opacity:1"
         transform="matrix(0.53899075,0,0,0.53899075,32.87495,71.597726)" />
      <polygon
         class="cls-10"
         points="934.18,161.73 800.93,12.38 705.14,108.73 "
         id="polygon84-0"
         style="fill:#ffffff;fill-opacity:1;stroke:none;stroke-width:1;stroke-linecap:round;stroke-linejoin:round;stroke-miterlimit:4;stroke-dasharray:none;stroke-opacity:1"
         transform="matrix(0.14260797,0,0,0.14260797,-0.95357453,15.164586)" />
      <polygon
         class="cls-10"
         points="934.18,161.73 800.93,12.38 705.14,108.73 "
         id="polygon84"
         style="fill:none;stroke:#000033;stroke-width:1;stroke-linecap:round;stroke-linejoin:round;stroke-miterlimit:4;stroke-dasharray:none;stroke-opacity:1"
         transform="matrix(0.14260797,0,0,0.14260797,-2.094438,13.738508)" />
      <circle
         class="cls-10"
         cx="-27.932011"
         cy="135.00311"
         r="21.960417"
         id="circle88-6"
         style="fill:#ffffff;fill-opacity:1;stroke:none;stroke-width:0.264583;stroke-linecap:round;stroke-linejoin:round;stroke-miterlimit:4;stroke-dasharray:none;stroke-opacity:1"
         transform="matrix(0.53899075,0,0,0.53899075,32.87495,71.597726)" />
      <ellipse
         class="cls-10"
         cx="-28.461176"
         cy="135.00311"
         id="circle88-7"
         style="fill:url(#linearGradient2478);fill-opacity:1;stroke:none;stroke-width:0.264583;stroke-linecap:round;stroke-linejoin:round;stroke-miterlimit:4;stroke-dasharray:none;stroke-opacity:1"
         transform="matrix(0.53899075,0,0,0.53899075,32.87495,71.597726)"
         rx="21.960365"
         ry="21.960417" />
      <circle
         class="cls-10"
         cx="-30.577843"
         cy="132.88649"
         r="21.960417"
         id="circle88"
         style="fill:#f5f7f8;stroke:#000033;stroke-width:0.264583;stroke-linecap:round;stroke-linejoin:round;stroke-miterlimit:4;stroke-dasharray:none;stroke-opacity:1;fill-opacity:1"
         transform="matrix(0.53899075,0,0,0.53899075,32.87495,71.597726)" />
      <path
         class="cls-4"
         d="m 113.74084,-57.209331 c -1.36754,-4.944679 -7.14794,-5.995657 -10.06346,4.431848 -1.26624,-3.653108 -3.909526,-8.844704 -6.666767,-8.844704 -1.722088,0 -4.115287,1.779069 -5.960835,5.020652"
         id="path90"
         style="fill:none;stroke:#000033;stroke-width:0.264583;stroke-linecap:round;stroke-linejoin:round;stroke-miterlimit:4;stroke-dasharray:none;stroke-opacity:1"
         transform="matrix(0.53899075,0,0,0.53899075,32.87495,71.597726)" />
      <path
         class="cls-3"
         d="m 111.97127,4.9663341 c -1.4479,4.4856647 -6.22288,19.3450169 -6.37006,29.6522239 -2.3139,1.266245 -17.877932,1.807562 -22.074441,-1.069975 1.156954,-4.55214 3.111439,-17.470971 2.604847,-21.956634 2.17356,-0.398868 25.839654,-6.6256149 25.839654,-6.6256149 z"
         id="path92"
         style="fill:#ffe6d5;fill-opacity:1;stroke-width:0.329179"
         transform="matrix(0.53899075,0,0,0.53899075,32.87495,71.597726)" />
      <path
         class="cls-9"
         d="m 85.965817,19.160909 c 0.465344,-4.064637 0.743916,-8.00265 0.525489,-10.1014492 2.010159,-0.3988672 23.897154,-6.6256123 23.897154,-6.6256123 -1.33905,4.485665 -5.75507,19.3450175 -5.89119,29.6522245 -1.31056,0.778743 -7.217581,1.282073 -12.491481,0.895868"
         id="path94"
         style="fill:#ffe6d5;fill-opacity:1;stroke:#000033;stroke-width:0.264583;stroke-linecap:round;stroke-linejoin:round;stroke-miterlimit:4;stroke-dasharray:none;stroke-opacity:1"
         transform="matrix(0.53899075,0,0,0.53899075,32.87495,71.597726)" />
      <ellipse
         class="cls-3"
         cx="31.34354"
         cy="93.514114"
         rx="26.119415"
         ry="20.433987"
         transform="matrix(0.11325841,-0.52695689,0.52695689,0.11325841,32.87495,71.597726)"
         id="ellipse96"
         style="fill:#ffe6d5;fill-opacity:1;stroke-width:0.316563" />
      <path
         class="cls-4"
         d="m 97.225875,12.392845 a 16.401003,16.401003 0 0 1 -6.603452,-0.05381 C 85.0193,11.136101 80.587455,7.0967855 77.982158,1.5759703"
         id="path98"
         style="fill:none;stroke:#000033;stroke-width:0.264583;stroke-linecap:round;stroke-linejoin:round;stroke-miterlimit:4;stroke-dasharray:none;stroke-opacity:1"
         transform="matrix(0.53899075,0,0,0.53899075,32.87495,71.597726)" />
      <path
         class="cls-4"
         d="m 75.721916,-6.0879652 a 32.156222,32.156222 0 0 1 0.424193,-11.3961818 c 3.035816,-14.112271 14.431994,-23.621748 25.467291,-21.257043 11.03531,2.364711 17.51846,15.729897 14.48582,29.8326704 a 32.675382,32.675382 0 0 1 -3.08963,8.50282157"
         id="path100"
         style="fill:none;stroke:#000033;stroke-width:0.264583;stroke-linecap:round;stroke-linejoin:round;stroke-miterlimit:4;stroke-dasharray:none;stroke-opacity:1"
         transform="matrix(0.53899075,0,0,0.53899075,32.87495,71.597726)" />
      <path
         class="cls-11"
         d="m 118.49241,-4.5526458 c 0.4052,-1.3643742 4.52049,-9.1422712 4.11529,-21.5261202 -0.26274,-8.148269 -6.70159,-24.150404 -6.68576,-26.274527 0.0538,-6.745906 -7.02131,-9.81338 -10.35469,2.098797 -1.26624,-3.653113 -3.90952,-8.844703 -6.666766,-8.844703 -2.757247,0 -7.24291,4.552143 -8.398356,12.371186 -0.383038,-2.500829 -2.627453,-5.381527 -3.909523,-5.381527 -1.282068,0 -4.359037,0.193103 -4.229248,10.832703 -1.025658,-1.282073 -3.270073,-2.051315 -4.43185,-2.051315 -2.380533,0 -5.720247,11.431006 3.767071,18.819527 0.531826,-1.006663 2.022821,-3.13395 2.111459,-3.13395 1.74425,0.471673 18.610593,4.678767 28.848163,6.087459 -0.25641,1.535319 -3.7734,17.5976084 0.12979,22.45997633 a 9.813378,9.813378 0 0 0 5.70442,-5.45750613 z"
         id="path102"
         style="fill:#000033;fill-opacity:1;stroke-width:0.316563"
         transform="matrix(0.53899075,0,0,0.53899075,32.87495,71.597726)" />
      <path
         class="cls-4"
         d="m 88.488802,-13.599947 c -0.433686,1.741083 -3.070635,4.6217864 -4.406522,5.1409444"
         id="path104"
         style="fill:none;stroke:#000033;stroke-width:0.264583;stroke-linecap:round;stroke-linejoin:round;stroke-miterlimit:4;stroke-dasharray:none;stroke-opacity:1"
         transform="matrix(0.53899075,0,0,0.53899075,32.87495,71.597726)" />
      <ellipse
         class="cls-12"
         cx="48.200714"
         cy="88.462433"
         rx="2.1937647"
         ry="1.301064"
         transform="matrix(0.18611254,-0.50583907,0.50583907,0.18611254,32.87495,71.597726)"
         id="ellipse106"
         style="fill:#000033;fill-opacity:1;stroke-width:0.316563" />
      <ellipse
         class="cls-12"
         cx="46.33744"
         cy="72.816849"
         rx="2.1937647"
         ry="1.301064"
         transform="matrix(0.18611254,-0.50583907,0.50583907,0.18611254,32.87495,71.597726)"
         id="ellipse106-1"
         style="fill:#000033;fill-opacity:1;stroke-width:0.316563" />
      <path
         class="cls-4"
         d="M 95.899485,-0.39936903 C 95.389823,0.72441913 92.32552,3.3265467 90.692067,3.5291457"
         id="path108"
         style="fill:none;stroke:#000033;stroke-width:0.264583;stroke-linecap:round;stroke-linejoin:round;stroke-miterlimit:4;stroke-dasharray:none;stroke-opacity:1"
         transform="matrix(0.53899075,0,0,0.53899075,32.87495,71.597726)" />
      <path
         class="cls-4"
         d="m 110.77467,-24.078101 a 98.719414,98.719414 0 0 0 -1.53849,10.478154"
         id="path110"
         style="fill:none;stroke:#000033;stroke-width:0.264583;stroke-linecap:round;stroke-linejoin:round;stroke-miterlimit:4;stroke-dasharray:none;stroke-opacity:1"
         transform="matrix(0.53899075,0,0,0.53899075,32.87495,71.597726)" />
      <path
         class="cls-4"
         d="m 88.612262,-49.247836 c -0.383037,-2.500826 -2.627453,-5.38153 -3.90952,-5.38153 -1.282073,0 -4.359042,0.193104 -4.229251,10.832706 -1.02566,-1.28207 -3.270073,-2.051312 -4.43185,-2.051312 -2.380536,0 -5.720247,11.431003 3.767074,18.819524 0.53182,-1.006663 2.022821,-3.133947 2.111457,-3.133947 1.434017,0.389371 13.105608,3.304889 22.899998,5.112453"
         id="path112"
         style="fill:none;stroke:#000033;stroke-width:0.264583;stroke-linecap:round;stroke-linejoin:round;stroke-miterlimit:4;stroke-dasharray:none;stroke-opacity:1"
         transform="matrix(0.53899075,0,0,0.53899075,32.87495,71.597726)" />
      <path
         class="cls-4"
         d="m 117.96693,-10.636939 a 48.259661,48.259661 0 0 0 2.75091,-17.97431 c -0.14879,-4.552143 -2.21593,-11.557627 -4.02349,-17.220896"
         id="path114"
         style="fill:none;stroke:#000033;stroke-width:1.43669px;stroke-linecap:round;stroke-linejoin:round;stroke-opacity:1"
         transform="matrix(0.53899075,0,0,0.53899075,32.87495,71.597726)" />
      <circle
         class="cls-3"
         cx="113.92759"
         cy="-1.6909254"
         r="5.2232494"
         id="circle116"
         style="fill:#ffccaa;fill-opacity:1;stroke-width:0.316563"
         transform="matrix(0.53899075,0,0,0.53899075,32.87495,71.597726)" />
      <path
         class="cls-4"
         d="m 111.42678,-8.1930936 a 5.2232493,5.2232493 0 1 1 -0.37987,9.7690639"
         id="path118"
         style="display:inline;fill:none;stroke:#000033;stroke-width:0.264583;stroke-linecap:round;stroke-linejoin:round;stroke-miterlimit:4;stroke-dasharray:none;stroke-opacity:1"
         transform="matrix(0.53899075,0,0,0.53899075,32.87495,71.597726)" />
      <path
         class="cls-2"
         d="M 27.829417,55.776421 C 16.267234,59.754252 6.6422376,73.854432 1.8260352,91.12975 c -7.5719516,27.15991 -3.2576373,62.16784 24.1023608,78.02615 52.422012,30.38327 76.050124,-25.69141 116.887104,-5.81967 0,0 24.38418,15.87931 24.26889,41.78175"
         id="path10-0"
         style="display:inline;fill:none;stroke:#000033;stroke-width:0.529167;stroke-linecap:round;stroke-linejoin:round;stroke-miterlimit:4;stroke-dasharray:3.175;stroke-dashoffset:0;stroke-opacity:1"
         sodipodi:nodetypes="csccc"
         transform="matrix(0.53899075,0,0,0.53899075,32.87495,71.597726)" />
      <g
         aria-label="Designer"
         transform="matrix(1.1593186,-0.66933292,0.66933292,1.1593186,-14.730947,2.5546099)"
         id="text2170"
         style="font-size:10.5833px;line-height:1.25;font-family:'Space Grotesk';-inkscape-font-specification:'Space Grotesk';letter-spacing:0px;fill:#000033;fill-opacity:1;stroke-width:0.264583">
        <path
           d="m -1.8882173,60.71262 h -2.7285069 v -7.696945 h 2.7510566 q 1.16130665,0 1.99940175,0.462267 0.83809511,0.45851 1.28908795,1.319154 0.4547512,0.860645 0.4547512,2.059535 0,1.202647 -0.4547512,2.06705 -0.45099284,0.864403 -1.2966045,1.326671 -0.84185338,0.462268 -2.0144349,0.462268 z M -2.9893916,59.3183 h 1.0335254 q 0.7215886,0 1.21392251,-0.255563 0.49609217,-0.25932 0.74413825,-0.800512 0.25180436,-0.54495 0.25180436,-1.405594 0,-0.853129 -0.25180436,-1.39432 Q -0.24585152,54.92112 -0.73818542,54.665557 -1.2305193,54.409994 -1.9521079,54.409994 h -1.0372837 z"
           style="font-weight:bold;font-family:inter;-inkscape-font-specification:'inter Bold';fill:#000033;fill-opacity:1"
           id="path1794" />
        <path
           d="m 5.6809395,60.825368 q -0.890711,0 -1.5333758,-0.360794 -0.6389066,-0.364553 -0.9846678,-1.029767 -0.3457613,-0.668973 -0.3457613,-1.582234 0,-0.890711 0.3457613,-1.563442 0.3457612,-0.672731 0.9733929,-1.048558 0.6313901,-0.375828 1.48076,-0.375828 0.5712576,0 1.0635915,0.184156 0.4960922,0.180397 0.8644031,0.54495 0.3720691,0.364552 0.5787742,0.917018 0.206705,0.548708 0.206705,1.28533 v 0.439718 H 3.4560412 v -0.992184 h 3.3674136 q 0,-0.345761 -0.150331,-0.612599 -0.150331,-0.266837 -0.4171684,-0.417168 -0.2630792,-0.154089 -0.6125987,-0.154089 -0.3645526,0 -0.6464231,0.169122 -0.2781123,0.165364 -0.4359598,0.447234 -0.1578475,0.278113 -0.1616058,0.620116 v 0.943326 q 0,0.428444 0.1578475,0.74038 0.1616058,0.311937 0.4547512,0.48106 0.2931453,0.169122 0.6952807,0.169122 0.2668374,0 0.4885756,-0.07517 0.2217382,-0.07516 0.3795857,-0.225496 0.1578475,-0.150331 0.2405295,-0.368311 l 1.48076,0.09772 q -0.1127483,0.533675 -0.4622677,0.932052 -0.3457612,0.394619 -0.8944693,0.616357 -0.5449497,0.21798 -1.2590217,0.21798 z"
           style="font-weight:bold;font-family:inter;-inkscape-font-specification:'inter Bold';fill:#000033;fill-opacity:1"
           id="path1796" />
        <path
           d="m 14.178398,56.586035 -1.465727,0.0902 q -0.03758,-0.187913 -0.161606,-0.338244 -0.124023,-0.154089 -0.32697,-0.244288 -0.199188,-0.09396 -0.477301,-0.09396 -0.372069,0 -0.627631,0.157848 -0.255563,0.154089 -0.255563,0.41341 0,0.206705 0.165364,0.349519 0.165364,0.142815 0.567499,0.229255 l 1.044801,0.210463 q 0.841853,0.172881 1.255263,0.556225 0.41341,0.383344 0.41341,1.007217 0,0.5675 -0.334486,0.995943 -0.330728,0.428443 -0.909503,0.668973 -0.575015,0.236771 -1.32667,0.236771 -1.146274,0 -1.8265214,-0.477301 -0.6764893,-0.481059 -0.7929958,-1.307879 l 1.5747172,-0.08268 q 0.07141,0.349519 0.345761,0.533675 0.274354,0.180397 0.702797,0.180397 0.420927,0 0.676489,-0.161606 0.259321,-0.165364 0.26308,-0.424685 -0.0038,-0.21798 -0.184156,-0.357036 -0.180397,-0.142814 -0.556224,-0.21798 L 10.942524,58.311083 Q 10.096912,58.14196 9.6835019,57.724792 9.27385,57.307624 9.27385,56.6612 q 0,-0.556224 0.3006619,-0.958359 0.3044202,-0.402136 0.8531281,-0.620116 0.552466,-0.21798 1.292846,-0.21798 1.093658,0 1.72129,0.462268 0.63139,0.462268 0.736622,1.259022 z"
           style="font-weight:bold;font-family:inter;-inkscape-font-specification:'inter Bold';fill:#000033;fill-opacity:1"
           id="path1798" />
        <path
           d="m 15.32092,60.71262 v -5.772709 h 1.601025 v 5.772709 z m 0.804271,-6.516847 q -0.357036,0 -0.612599,-0.236772 -0.251804,-0.240529 -0.251804,-0.575016 0,-0.330728 0.251804,-0.567499 0.255563,-0.240529 0.612599,-0.240529 0.357036,0 0.60884,0.240529 0.255563,0.236771 0.255563,0.567499 0,0.334487 -0.255563,0.575016 -0.251804,0.236772 -0.60884,0.236772 z"
           style="font-weight:bold;font-family:inter;-inkscape-font-specification:'inter Bold';fill:#000033;fill-opacity:1"
           id="path1800" />
        <path
           d="m 20.800478,62.99765 q -0.777963,0 -1.334188,-0.214221 -0.552466,-0.210464 -0.879436,-0.575016 -0.32697,-0.364553 -0.424685,-0.819304 l 1.48076,-0.199188 q 0.06765,0.17288 0.214222,0.323211 0.146572,0.150331 0.387102,0.24053 0.244288,0.09396 0.593807,0.09396 0.5224,0 0.860645,-0.255563 0.342003,-0.251804 0.342003,-0.845612 v -1.056075 h -0.06765 q -0.105232,0.24053 -0.315695,0.454751 -0.210463,0.214222 -0.541191,0.34952 -0.330729,0.135298 -0.789238,0.135298 -0.650181,0 -1.183856,-0.300662 -0.529917,-0.30442 -0.845612,-0.928294 -0.311937,-0.627632 -0.311937,-1.585991 0,-0.98091 0.319454,-1.638608 0.319453,-0.657698 0.84937,-0.984668 0.533674,-0.32697 1.168823,-0.32697 0.484817,0 0.811787,0.165364 0.32697,0.161606 0.526158,0.405894 0.202947,0.24053 0.311937,0.473543 h 0.06013 v -0.969635 h 1.58975 v 5.829083 q 0,0.736622 -0.360794,1.232714 -0.360794,0.496092 -0.999701,0.744138 -0.635148,0.251804 -1.461968,0.251804 z m 0.03382,-3.57036 q 0.387102,0 0.65394,-0.191672 0.270595,-0.19543 0.41341,-0.556224 0.146573,-0.364553 0.146573,-0.87192 0,-0.507367 -0.142815,-0.879436 Q 21.762596,56.55221 21.492,56.345505 21.221404,56.1388 20.834302,56.1388 q -0.394619,0 -0.665214,0.214222 -0.270596,0.210463 -0.409652,0.586291 -0.139056,0.375827 -0.139056,0.868161 0,0.49985 0.139056,0.864403 0.142814,0.360794 0.409652,0.559983 0.270595,0.19543 0.665214,0.19543 z"
           style="font-weight:bold;font-family:inter;-inkscape-font-specification:'inter Bold';fill:#000033;fill-opacity:1"
           id="path1802" />
        <path
           d="M 26.501775,57.375272 V 60.71262 H 24.90075 v -5.772709 h 1.52586 v 1.018492 h 0.06765 q 0.191672,-0.503609 0.642665,-0.796754 0.450993,-0.296904 1.093658,-0.296904 0.601324,0 1.048558,0.26308 0.447235,0.263079 0.695281,0.751654 0.248046,0.484818 0.248046,1.157549 v 3.675592 h -1.601024 v -3.389963 q 0.0038,-0.529917 -0.270596,-0.826821 -0.274354,-0.300662 -0.755413,-0.300662 -0.323212,0 -0.571258,0.139057 -0.244288,0.139056 -0.383344,0.405893 -0.135298,0.263079 -0.139056,0.635148 z"
           style="font-weight:bold;font-family:inter;-inkscape-font-specification:'inter Bold';fill:#000033;fill-opacity:1"
           id="path1804" />
        <path
           d="m 34.112274,60.825368 q -0.890711,0 -1.533375,-0.360794 -0.638907,-0.364553 -0.984668,-1.029767 -0.345761,-0.668973 -0.345761,-1.582234 0,-0.890711 0.345761,-1.563442 0.345761,-0.672731 0.973393,-1.048558 0.63139,-0.375828 1.48076,-0.375828 0.571257,0 1.063591,0.184156 0.496092,0.180397 0.864403,0.54495 0.372069,0.364552 0.578775,0.917018 0.206705,0.548708 0.206705,1.28533 v 0.439718 h -4.874482 v -0.992184 h 3.367414 q 0,-0.345761 -0.150331,-0.612599 -0.150331,-0.266837 -0.417169,-0.417168 -0.263079,-0.154089 -0.612598,-0.154089 -0.364553,0 -0.646423,0.169122 -0.278113,0.165364 -0.43596,0.447234 -0.157848,0.278113 -0.161606,0.620116 v 0.943326 q 0,0.428444 0.157847,0.74038 0.161606,0.311937 0.454752,0.48106 0.293145,0.169122 0.69528,0.169122 0.266838,0 0.488576,-0.07517 0.221738,-0.07516 0.379586,-0.225496 0.157847,-0.150331 0.240529,-0.368311 l 1.48076,0.09772 q -0.112748,0.533675 -0.462268,0.932052 -0.345761,0.394619 -0.894469,0.616357 -0.54495,0.21798 -1.259022,0.21798 z"
           style="font-weight:bold;font-family:inter;-inkscape-font-specification:'inter Bold';fill:#000033;fill-opacity:1"
           id="path1806" />
        <path
           d="m 37.806655,60.71262 v -5.772709 h 1.552167 v 1.007217 h 0.06013 q 0.157847,-0.537433 0.529916,-0.811787 0.372069,-0.278112 0.856887,-0.278112 0.120264,0 0.259321,0.01503 0.139056,0.01503 0.244287,0.04134 v 1.420628 q -0.112748,-0.03383 -0.311936,-0.06013 -0.199189,-0.02631 -0.364553,-0.02631 -0.353278,0 -0.63139,0.154089 -0.274354,0.150331 -0.43596,0.420927 -0.157847,0.270596 -0.157847,0.623874 v 3.26594 z"
           style="font-weight:bold;font-family:inter;-inkscape-font-specification:'inter Bold';fill:#000033;fill-opacity:1"
           id="path1808" />
      </g>
    </g>
  </g>
</svg>
