<?xml version="1.0" encoding="UTF-8" standalone="no"?>
<!-- Created with Inkscape (http://www.inkscape.org/) -->

<svg
   width="600"
   height="60"
   viewBox="0 0 158.75 15.875001"
   version="1.1"
   id="svg2745"
   inkscape:version="1.1.2 (b8e25be833, 2022-02-05)"
   sodipodi:docname="menu-banner.svg"
   inkscape:export-filename="E:\oxyian-project\internal\oxyian-theme\asset\img\svg\brand\banner\menu-banner.png"
   inkscape:export-xdpi="100.053"
   inkscape:export-ydpi="100.053"
   xmlns:inkscape="http://www.inkscape.org/namespaces/inkscape"
   xmlns:sodipodi="http://sodipodi.sourceforge.net/DTD/sodipodi-0.dtd"
   xmlns:xlink="http://www.w3.org/1999/xlink"
   xmlns="http://www.w3.org/2000/svg"
   xmlns:svg="http://www.w3.org/2000/svg">
  <sodipodi:namedview
     id="namedview2747"
     pagecolor="#ffffff"
     bordercolor="#999999"
     borderopacity="1"
     inkscape:pageshadow="0"
     inkscape:pageopacity="0"
     inkscape:pagecheckerboard="0"
     inkscape:document-units="mm"
     showgrid="false"
     units="px"
     inkscape:zoom="2.8543543"
     inkscape:cx="331.24829"
     inkscape:cy="78.826934"
     inkscape:window-width="1366"
     inkscape:window-height="745"
     inkscape:window-x="1358"
     inkscape:window-y="-8"
     inkscape:window-maximized="1"
     inkscape:current-layer="g1766" />
  <defs
     id="defs2742">
    <linearGradient
       inkscape:collect="always"
       id="linearGradient953">
      <stop
         style="stop-color:#9c27b0;stop-opacity:1"
         offset="0"
         id="stop949" />
      <stop
         style="stop-color:#00bcd4;stop-opacity:1"
         offset="1"
         id="stop951" />
    </linearGradient>
    <linearGradient
       inkscape:collect="always"
       xlink:href="#linearGradient953"
       id="linearGradient955"
       x1="60.222336"
       y1="14.437574"
       x2="144.99564"
       y2="27.440979"
       gradientUnits="userSpaceOnUse"
       gradientTransform="translate(-0.78106849,-0.78106849)" />
  </defs>
  <g
     inkscape:label="Layer 1"
     inkscape:groupmode="layer"
     id="layer1">
    <g
       aria-label="Looking for Designer?"
       id="text3499"
       style="font-size:10.5833px;line-height:1.25;font-family:'Space Grotesk';-inkscape-font-specification:'Space Grotesk';letter-spacing:0px;stroke-width:0.264583">
      <g
         id="g22501"
         transform="matrix(0.82228362,0,0,0.82228362,-1.5202244,0.77327469)">
        <g
           id="g22475"
           transform="matrix(0.8239137,0,0,0.8239137,17.323148,1.5983816)">
          <g
             id="g1766"
             transform="translate(4.1830057,-8.3519668)">
            <rect
               style="font-size:10.5833px;line-height:1.25;font-family:'Space Grotesk';-inkscape-font-specification:'Space Grotesk';letter-spacing:0px;display:inline;fill:url(#linearGradient955);fill-opacity:1;fill-rule:evenodd;stroke:none;stroke-width:0.321766;stroke-miterlimit:4;stroke-dasharray:2.57413, 1.28707;stroke-dashoffset:0;stroke-opacity:1"
               id="rect5568-0"
               width="86.492699"
               height="15.337513"
               x="57.721302"
               y="11.322398"
               ry="0" />
            <rect
               style="display:inline;fill:#f5f7f8;fill-opacity:1;fill-rule:evenodd;stroke:#000033;stroke-width:0.19526712;stroke-miterlimit:4;stroke-dasharray:none;stroke-dashoffset:0;stroke-opacity:1"
               id="rect5568"
               width="86.493271"
               height="15.337513"
               x="56.159168"
               y="9.7602606"
               ry="0" />
            <g
               aria-label="Looking for"
               id="text38455"
               style="font-size:9.43848px;fill:#000033;fill-opacity:1;stroke-width:0.0851339"
               transform="translate(-1.562137)">
              <path
                 d="m 1.8487835,20.974916 v -6.864349 h 1.4513004 v 5.667781 h 2.9428216 v 1.196568 z"
                 style="font-weight:bold;font-family:inter;-inkscape-font-specification:'inter Bold';fill:#000033;fill-opacity:1"
                 id="path42259" />
              <path
                 d="m 9.50415,21.075468 q -0.7809538,0 -1.3507484,-0.331821 -0.5664429,-0.335173 -0.8748023,-0.931782 -0.3083595,-0.59996 -0.3083595,-1.390969 0,-0.797713 0.3083595,-1.394321 0.3083594,-0.59996 0.8748023,-0.931782 0.5697946,-0.335173 1.3507484,-0.335173 0.780954,0 1.347397,0.335173 0.569794,0.331822 0.878154,0.931782 0.308359,0.596608 0.308359,1.394321 0,0.791009 -0.308359,1.390969 -0.30836,0.596609 -0.878154,0.931782 -0.566443,0.331821 -1.347397,0.331821 z m 0.0067,-1.106071 q 0.3552837,0 0.593257,-0.201104 0.237973,-0.204456 0.358636,-0.556388 0.124014,-0.351932 0.124014,-0.801064 0,-0.449133 -0.124014,-0.801065 -0.120663,-0.351932 -0.358636,-0.556387 -0.2379733,-0.204456 -0.593257,-0.204456 -0.3586354,0 -0.603312,0.204456 -0.2413247,0.204455 -0.3653389,0.556387 -0.1206624,0.351932 -0.1206624,0.801065 0,0.449132 0.1206624,0.801064 0.1240142,0.351932 0.3653389,0.556388 0.2446766,0.201104 0.603312,0.201104 z"
                 style="font-weight:bold;font-family:inter;-inkscape-font-specification:'inter Bold';fill:#000033;fill-opacity:1"
                 id="path42261" />
              <path
                 d="m 15.295941,21.075468 q -0.780953,0 -1.350748,-0.331821 -0.566443,-0.335173 -0.874802,-0.931782 -0.30836,-0.59996 -0.30836,-1.390969 0,-0.797713 0.30836,-1.394321 0.308359,-0.59996 0.874802,-0.931782 0.569795,-0.335173 1.350748,-0.335173 0.780954,0 1.347397,0.335173 0.569795,0.331822 0.878154,0.931782 0.30836,0.596608 0.30836,1.394321 0,0.791009 -0.30836,1.390969 -0.308359,0.596609 -0.878154,0.931782 -0.566443,0.331821 -1.347397,0.331821 z m 0.0067,-1.106071 q 0.355284,0 0.593257,-0.201104 0.237973,-0.204456 0.358635,-0.556388 0.124014,-0.351932 0.124014,-0.801064 0,-0.449133 -0.124014,-0.801065 -0.120662,-0.351932 -0.358635,-0.556387 -0.237973,-0.204456 -0.593257,-0.204456 -0.358636,0 -0.603312,0.204456 -0.241325,0.204455 -0.365339,0.556387 -0.120662,0.351932 -0.120662,0.801065 0,0.449132 0.120662,0.801064 0.124014,0.351932 0.365339,0.556388 0.244676,0.201104 0.603312,0.201104 z"
                 style="font-weight:bold;font-family:inter;-inkscape-font-specification:'inter Bold';fill:#000033;fill-opacity:1"
                 id="path42263" />
              <path
                 d="m 20.0554,19.49345 0.0034,-1.712735 h 0.207808 l 1.649052,-1.954061 h 1.638998 l -2.215496,2.587538 h -0.338525 z m -1.293769,1.481466 v -6.864349 h 1.427838 v 6.864349 z m 3.217663,0 -1.514983,-2.242309 0.951892,-1.008872 2.235606,3.251181 z"
                 style="font-weight:bold;font-family:inter;-inkscape-font-specification:'inter Bold';fill:#000033;fill-opacity:1"
                 id="path42265" />
              <path
                 d="m 24.251772,20.974916 v -5.148262 h 1.427838 v 5.148262 z m 0.71727,-5.811905 q -0.318414,0 -0.546332,-0.211159 -0.224566,-0.214511 -0.224566,-0.512815 0,-0.294953 0.224566,-0.506112 0.227918,-0.214511 0.546332,-0.214511 0.318415,0 0.542981,0.214511 0.227918,0.211159 0.227918,0.506112 0,0.298304 -0.227918,0.512815 -0.224566,0.211159 -0.542981,0.211159 z"
                 style="font-weight:bold;font-family:inter;-inkscape-font-specification:'inter Bold';fill:#000033;fill-opacity:1"
                 id="path42267" />
              <path
                 d="m 28.247033,17.998577 v 2.976339 h -1.427839 v -5.148262 h 1.360804 v 0.90832 h 0.06033 q 0.170939,-0.449132 0.573147,-0.710567 0.402208,-0.264787 0.975354,-0.264787 0.536277,0 0.935133,0.234621 0.398857,0.234621 0.620071,0.670347 0.221214,0.432373 0.221214,1.032333 v 3.277995 H 30.13741 v -3.023263 q 0.0034,-0.472594 -0.241325,-0.737381 -0.244676,-0.268139 -0.673698,-0.268139 -0.288249,0 -0.509463,0.124014 -0.217863,0.124015 -0.341877,0.361988 -0.120663,0.234621 -0.124014,0.566442 z"
                 style="font-weight:bold;font-family:inter;-inkscape-font-specification:'inter Bold';fill:#000033;fill-opacity:1"
                 id="path42269" />
              <path
                 d="m 35.007471,23.01277 q -0.693809,0 -1.189865,-0.191049 -0.492705,-0.187697 -0.784306,-0.512815 -0.2916,-0.325118 -0.378746,-0.730678 l 1.320583,-0.177641 q 0.06033,0.154179 0.191049,0.288249 0.130718,0.134069 0.345229,0.214511 0.217862,0.08379 0.529573,0.08379 0.465891,0 0.767547,-0.227918 0.305008,-0.224566 0.305008,-0.75414 v -0.941837 h -0.06033 q -0.09385,0.214511 -0.281546,0.40556 -0.187697,0.191049 -0.482649,0.311711 -0.294953,0.120662 -0.703864,0.120662 -0.57985,0 -1.055796,-0.268138 -0.472595,-0.271491 -0.75414,-0.827878 -0.278194,-0.55974 -0.278194,-1.414432 0,-0.874802 0.284897,-1.461355 0.284898,-0.586554 0.757492,-0.878154 0.475946,-0.291601 1.042389,-0.291601 0.432374,0 0.723974,0.147476 0.291601,0.144125 0.469243,0.361987 0.180994,0.214511 0.278194,0.422319 h 0.05363 v -0.864748 h 1.417783 v 5.198538 q 0,0.65694 -0.321767,1.099369 -0.321766,0.442429 -0.891561,0.663643 -0.566443,0.224566 -1.303824,0.224566 z m 0.03017,-3.184146 q 0.345228,0 0.583201,-0.170939 0.241325,-0.17429 0.368691,-0.496056 0.130717,-0.325118 0.130717,-0.777602 0,-0.452484 -0.127365,-0.784306 -0.127366,-0.335173 -0.368691,-0.519518 -0.241325,-0.184346 -0.586553,-0.184346 -0.351932,0 -0.593257,0.191049 -0.241325,0.187697 -0.365339,0.52287 -0.124014,0.335174 -0.124014,0.774251 0,0.44578 0.124014,0.770898 0.127366,0.321767 0.365339,0.499409 0.241325,0.17429 0.593257,0.17429 z"
                 style="font-weight:bold;font-family:inter;-inkscape-font-specification:'inter Bold';fill:#000033;fill-opacity:1"
                 id="path42271" />
              <path
                 d="m 43.621427,15.826654 v 1.072555 h -3.177443 v -1.072555 z m -2.450117,5.148262 v -5.520304 q 0,-0.559739 0.217863,-0.92843 0.221214,-0.368691 0.603312,-0.553036 0.382097,-0.184345 0.868098,-0.184345 0.32847,0 0.599961,0.05028 0.274842,0.05028 0.408911,0.0905 l -0.254732,1.072554 q -0.08379,-0.02681 -0.207807,-0.05028 -0.120662,-0.02346 -0.248028,-0.02346 -0.315063,0 -0.439077,0.147476 -0.124014,0.144125 -0.124014,0.40556 v 5.49349 z"
                 style="font-weight:bold;font-family:inter;-inkscape-font-specification:'inter Bold';fill:#000033;fill-opacity:1"
                 id="path42273" />
              <path
                 d="m 46.637975,21.075468 q -0.780954,0 -1.350749,-0.331821 -0.566442,-0.335173 -0.874802,-0.931782 -0.308359,-0.59996 -0.308359,-1.390969 0,-0.797713 0.308359,-1.394321 0.30836,-0.59996 0.874802,-0.931782 0.569795,-0.335173 1.350749,-0.335173 0.780954,0 1.347397,0.335173 0.569794,0.331822 0.878154,0.931782 0.308359,0.596608 0.308359,1.394321 0,0.791009 -0.308359,1.390969 -0.30836,0.596609 -0.878154,0.931782 -0.566443,0.331821 -1.347397,0.331821 z m 0.0067,-1.106071 q 0.355284,0 0.593257,-0.201104 0.237973,-0.204456 0.358636,-0.556388 0.124014,-0.351932 0.124014,-0.801064 0,-0.449133 -0.124014,-0.801065 -0.120663,-0.351932 -0.358636,-0.556387 -0.237973,-0.204456 -0.593257,-0.204456 -0.358635,0 -0.603312,0.204456 -0.241324,0.204455 -0.365339,0.556387 -0.120662,0.351932 -0.120662,0.801065 0,0.449132 0.120662,0.801064 0.124015,0.351932 0.365339,0.556388 0.244677,0.201104 0.603312,0.201104 z"
                 style="font-weight:bold;font-family:inter;-inkscape-font-specification:'inter Bold';fill:#000033;fill-opacity:1"
                 id="path42275" />
              <path
                 d="m 50.103666,20.974916 v -5.148262 h 1.384266 v 0.898265 h 0.05363 q 0.140773,-0.479298 0.472595,-0.723974 0.331821,-0.248029 0.764195,-0.248029 0.107255,0 0.23127,0.01341 0.124014,0.01341 0.217862,0.03687 v 1.266955 q -0.100552,-0.03017 -0.278194,-0.05363 -0.177642,-0.02346 -0.325118,-0.02346 -0.315063,0 -0.563091,0.137421 -0.244676,0.134069 -0.388801,0.375394 -0.140773,0.241324 -0.140773,0.556387 v 2.912656 z"
                 style="font-weight:bold;font-family:inter;-inkscape-font-specification:'inter Bold';fill:#000033;fill-opacity:1"
                 id="path42277" />
            </g>
            <g
               aria-label="Desinger"
               id="text38455-4"
               style="font-size:9.43848px;fill:#000033;fill-opacity:1;stroke-width:0.0851339"
               transform="translate(0.68767251)">
              <path
                 d="m 151.23558,20.974916 h -2.43336 v -6.864349 h 2.45347 q 1.03568,0 1.78312,0.412263 0.74744,0.408912 1.14965,1.176459 0.40556,0.767546 0.40556,1.836749 0,1.072555 -0.40556,1.843454 -0.40221,0.770898 -1.15635,1.183161 -0.75079,0.412263 -1.79653,0.412263 z m -0.98206,-1.243493 h 0.92173 q 0.64353,0 1.08261,-0.227917 0.44243,-0.23127 0.66364,-0.71392 0.22457,-0.486001 0.22457,-1.253548 0,-0.760843 -0.22457,-1.243493 -0.22121,-0.482649 -0.66029,-0.710567 -0.43908,-0.227918 -1.08261,-0.227918 h -0.92508 z"
                 style="font-weight:bold;font-family:inter;-inkscape-font-specification:'inter Bold';fill:#000033;fill-opacity:1"
                 id="path42242" />
              <path
                 d="m 157.98596,21.075468 q -0.79436,0 -1.3675,-0.321766 -0.5698,-0.325118 -0.87816,-0.918375 -0.30836,-0.596608 -0.30836,-1.411079 0,-0.794361 0.30836,-1.394321 0.30836,-0.599961 0.8681,-0.935134 0.56309,-0.335173 1.32058,-0.335173 0.50947,0 0.94854,0.164235 0.44243,0.160883 0.7709,0.486001 0.33182,0.325118 0.51617,0.817823 0.18434,0.489353 0.18434,1.146293 v 0.392152 h -4.34719 v -0.884857 h 3.00315 q 0,-0.30836 -0.13407,-0.546333 -0.13407,-0.237973 -0.37204,-0.372042 -0.23462,-0.137421 -0.54633,-0.137421 -0.32512,0 -0.5765,0.150828 -0.24803,0.147476 -0.3888,0.398856 -0.14078,0.248028 -0.14413,0.553036 v 0.841285 q 0,0.382098 0.14077,0.660292 0.14413,0.278193 0.40556,0.429021 0.26144,0.150828 0.62007,0.150828 0.23798,0 0.43573,-0.06703 0.19775,-0.06704 0.33853,-0.201104 0.14077,-0.13407 0.21451,-0.32847 l 1.32058,0.08714 q -0.10055,0.475946 -0.41226,0.83123 -0.30836,0.351932 -0.79772,0.549684 -0.486,0.1944 -1.12283,0.1944 z"
                 style="font-weight:bold;font-family:inter;-inkscape-font-specification:'inter Bold';fill:#000033;fill-opacity:1"
                 id="path42244" />
              <path
                 d="m 165.56423,17.294714 -1.30717,0.08044 q -0.0335,-0.167587 -0.14413,-0.301656 -0.11061,-0.137421 -0.2916,-0.217863 -0.17764,-0.08379 -0.42567,-0.08379 -0.33182,0 -0.55974,0.140773 -0.22792,0.137421 -0.22792,0.368691 0,0.184345 0.14748,0.311711 0.14748,0.127366 0.50611,0.204455 l 0.93178,0.187698 q 0.75079,0.154179 1.11948,0.496056 0.36869,0.341877 0.36869,0.898265 0,0.506111 -0.2983,0.888209 -0.29495,0.382097 -0.81112,0.596608 -0.51282,0.211159 -1.18316,0.211159 -1.02228,0 -1.62895,-0.42567 -0.60331,-0.429021 -0.70721,-1.166403 l 1.40438,-0.07374 q 0.0637,0.311711 0.30835,0.475946 0.24468,0.160883 0.62678,0.160883 0.37539,0 0.60331,-0.144124 0.23127,-0.147476 0.23462,-0.378746 -0.003,-0.1944 -0.16423,-0.318415 -0.16089,-0.127365 -0.49606,-0.1944 l -0.89156,-0.177642 q -0.75414,-0.150828 -1.12283,-0.52287 -0.36534,-0.372043 -0.36534,-0.948541 0,-0.496056 0.26814,-0.854692 0.27149,-0.358635 0.76084,-0.553036 0.49271,-0.1944 1.153,-0.1944 0.97535,0 1.53509,0.412263 0.56309,0.412263 0.65694,1.122831 z"
                 style="font-weight:bold;font-family:inter;-inkscape-font-specification:'inter Bold';fill:#000033;fill-opacity:1"
                 id="path42246" />
              <path
                 d="m 166.58317,20.974916 v -5.148262 h 1.42783 v 5.148262 z m 0.71727,-5.811905 q -0.31842,0 -0.54634,-0.211159 -0.22456,-0.214511 -0.22456,-0.512815 0,-0.294953 0.22456,-0.506112 0.22792,-0.214511 0.54634,-0.214511 0.31841,0 0.54298,0.214511 0.22791,0.211159 0.22791,0.506112 0,0.298304 -0.22791,0.512815 -0.22457,0.211159 -0.54298,0.211159 z"
                 style="font-weight:bold;font-family:inter;-inkscape-font-specification:'inter Bold';fill:#000033;fill-opacity:1"
                 id="path42248" />
              <path
                 d="m 170.57843,17.998577 v 2.976339 h -1.42784 v -5.148262 h 1.3608 v 0.90832 h 0.0603 q 0.17094,-0.449132 0.57315,-0.710567 0.40221,-0.264787 0.97535,-0.264787 0.53628,0 0.93514,0.234621 0.39885,0.234621 0.62007,0.670347 0.22121,0.432373 0.22121,1.032333 v 3.277995 h -1.42784 v -3.023263 q 0.003,-0.472594 -0.24132,-0.737381 -0.24468,-0.268139 -0.6737,-0.268139 -0.28825,0 -0.50946,0.124014 -0.21787,0.124015 -0.34188,0.361988 -0.12066,0.234621 -0.12401,0.566442 z"
                 style="font-weight:bold;font-family:inter;-inkscape-font-specification:'inter Bold';fill:#000033;fill-opacity:1"
                 id="path42250" />
              <path
                 d="m 177.33886,23.01277 q -0.6938,0 -1.18986,-0.191049 -0.49271,-0.187697 -0.78431,-0.512815 -0.2916,-0.325118 -0.37874,-0.730678 l 1.32058,-0.177641 q 0.0603,0.154179 0.19105,0.288249 0.13072,0.134069 0.34523,0.214511 0.21786,0.08379 0.52957,0.08379 0.46589,0 0.76755,-0.227918 0.30501,-0.224566 0.30501,-0.75414 v -0.941837 h -0.0603 q -0.0939,0.214511 -0.28155,0.40556 -0.1877,0.191049 -0.48265,0.311711 -0.29495,0.120662 -0.70386,0.120662 -0.57985,0 -1.0558,-0.268138 -0.47259,-0.271491 -0.75414,-0.827878 -0.27819,-0.55974 -0.27819,-1.414432 0,-0.874802 0.28489,-1.461355 0.2849,-0.586554 0.7575,-0.878154 0.47594,-0.291601 1.04238,-0.291601 0.43238,0 0.72398,0.147476 0.2916,0.144125 0.46924,0.361987 0.181,0.214511 0.2782,0.422319 h 0.0536 v -0.864748 h 1.41779 v 5.198538 q 0,0.65694 -0.32177,1.099369 -0.32177,0.442429 -0.89156,0.663643 -0.56644,0.224566 -1.30383,0.224566 z m 0.0302,-3.184146 q 0.34523,0 0.5832,-0.170939 0.24133,-0.17429 0.36869,-0.496056 0.13072,-0.325118 0.13072,-0.777602 0,-0.452484 -0.12737,-0.784306 -0.12736,-0.335173 -0.36869,-0.519518 -0.24132,-0.184346 -0.58655,-0.184346 -0.35193,0 -0.59326,0.191049 -0.24132,0.187697 -0.36534,0.52287 -0.12401,0.335174 -0.12401,0.774251 0,0.44578 0.12401,0.770898 0.12737,0.321767 0.36534,0.499409 0.24133,0.17429 0.59326,0.17429 z"
                 style="font-weight:bold;font-family:inter;-inkscape-font-specification:'inter Bold';fill:#000033;fill-opacity:1"
                 id="path42252" />
              <path
                 d="m 183.34182,21.075468 q -0.79437,0 -1.36751,-0.321766 -0.5698,-0.325118 -0.87816,-0.918375 -0.30835,-0.596608 -0.30835,-1.411079 0,-0.794361 0.30835,-1.394321 0.30836,-0.599961 0.8681,-0.935134 0.56309,-0.335173 1.32059,-0.335173 0.50946,0 0.94854,0.164235 0.44243,0.160883 0.7709,0.486001 0.33182,0.325118 0.51616,0.817823 0.18435,0.489353 0.18435,1.146293 v 0.392152 h -4.3472 v -0.884857 h 3.00315 q 0,-0.30836 -0.13407,-0.546333 -0.13407,-0.237973 -0.37204,-0.372042 -0.23462,-0.137421 -0.54633,-0.137421 -0.32512,0 -0.5765,0.150828 -0.24803,0.147476 -0.3888,0.398856 -0.14077,0.248028 -0.14413,0.553036 v 0.841285 q 0,0.382098 0.14078,0.660292 0.14412,0.278193 0.40556,0.429021 0.26143,0.150828 0.62007,0.150828 0.23797,0 0.43572,-0.06703 0.19776,-0.06704 0.33853,-0.201104 0.14077,-0.13407 0.21451,-0.32847 l 1.32058,0.08714 q -0.10055,0.475946 -0.41226,0.83123 -0.30836,0.351932 -0.79771,0.549684 -0.486,0.1944 -1.12283,0.1944 z"
                 style="font-weight:bold;font-family:inter;-inkscape-font-specification:'inter Bold';fill:#000033;fill-opacity:1"
                 id="path42254" />
              <path
                 d="m 186.63657,20.974916 v -5.148262 h 1.38426 v 0.898265 h 0.0536 q 0.14077,-0.479298 0.47259,-0.723974 0.33183,-0.248029 0.7642,-0.248029 0.10726,0 0.23127,0.01341 0.12401,0.01341 0.21786,0.03687 v 1.266955 q -0.10055,-0.03017 -0.27819,-0.05363 -0.17764,-0.02346 -0.32512,-0.02346 -0.31506,0 -0.56309,0.137421 -0.24468,0.134069 -0.3888,0.375394 -0.14077,0.241324 -0.14077,0.556387 v 2.912656 z"
                 style="font-weight:bold;font-family:inter;-inkscape-font-specification:'inter Bold';fill:#000033;fill-opacity:1"
                 id="path42256" />
            </g>
          </g>
          <g
             id="g42631"
             transform="matrix(-1.1916362,-1.2425475,1.2425475,-1.1916362,296.88232,228.43419)"
             style="stroke-width:0.194257;stroke-miterlimit:4;stroke-dasharray:none" />
          <g
             id="g6008"
             style="fill:#000033;fill-opacity:1" />
        </g>
      </g>
    </g>
  </g>
</svg>
